<svg version="1.1" id="Layer_1" xmlns="http://www.w3.org/2000/svg" xmlns:xlink="http://www.w3.org/1999/xlink" x="0px" y="0px"
	 width="100%" viewBox="0 0 628 533" enable-background="new 0 0 628 533" xml:space="preserve">
<path fill="#000000" opacity="1.000000" stroke="none" 
	d="
M629.000000,184.000000 
	C629.000000,301.000000 629.000000,417.500000 629.000000,534.000000 
	C419.666656,534.000000 210.333328,534.000000 1.000000,534.000000 
	C1.000000,356.333344 1.000000,178.666672 1.000000,1.000000 
	C210.333328,1.000000 419.666656,1.000000 629.000000,1.000000 
	C629.000000,61.833332 629.000000,122.666664 629.000000,184.000000 
M293.591064,184.765717 
	C293.395935,183.507477 293.200806,182.249237 292.799225,180.148911 
	C292.870819,177.146561 292.942413,174.144211 293.684662,170.699844 
	C295.357819,168.574509 295.722473,166.602615 292.802826,164.075424 
	C292.864655,148.052795 292.926483,132.030182 293.635834,115.714165 
	C295.118225,109.198708 299.972961,105.184036 304.542633,100.938652 
	C313.597046,92.526794 316.521759,81.310959 315.408752,69.942871 
	C313.188965,47.270969 301.599426,36.092224 279.647400,32.170647 
	C266.053650,29.742222 245.854919,40.264782 239.262726,52.447670 
	C229.675858,70.164970 232.737839,92.614426 250.859680,105.825783 
	C253.888931,108.034210 255.107407,110.552727 255.060364,114.235535 
	C254.913559,125.731941 255.036804,137.231567 254.965088,148.729401 
	C254.954926,150.355896 254.442734,151.979279 254.162903,153.604095 
	C253.630295,153.692123 253.097672,153.780151 252.565063,153.868179 
	C251.733566,152.252853 250.924225,150.625656 250.064575,149.025452 
	C249.151428,147.325668 248.596329,144.766357 247.181122,144.117615 
	C240.642380,141.120239 235.087662,136.539215 227.296219,135.480103 
	C214.041443,133.678314 201.001602,142.111679 196.873016,152.134521 
	C196.287415,153.556122 194.643906,154.541962 193.044235,156.188339 
	C192.422745,154.409714 192.120102,153.945755 192.118622,153.480850 
	C192.074448,139.650879 191.924286,125.818138 192.197647,111.993881 
	C192.235611,110.073463 193.964859,107.637245 195.624420,106.385086 
	C208.799149,96.444511 214.058411,84.070457 212.539490,67.059143 
	C210.926147,48.990257 191.481796,31.329206 172.529449,32.774742 
	C154.809464,34.126282 141.641266,40.647449 134.753326,57.805298 
	C130.405426,68.635880 131.171814,79.131645 135.128021,89.815422 
	C137.796509,97.021729 143.464218,101.687721 148.421906,107.037926 
	C150.010651,108.752457 151.661224,111.124184 151.834671,113.310181 
	C152.531067,122.087128 152.891312,130.907562 152.951294,139.714828 
	C153.095016,160.814987 153.117508,181.917618 152.971970,203.017746 
	C152.746857,235.653763 152.284286,268.288147 152.062759,300.924164 
	C152.022232,306.894196 152.941513,312.870209 152.912048,318.840973 
	C152.841064,333.226624 152.298447,347.611084 152.324997,361.995361 
	C152.333038,366.349030 153.192261,370.808716 154.362091,375.025482 
	C155.821320,380.285370 158.421509,385.235870 159.794083,390.511169 
	C163.251663,403.799988 171.207733,414.367981 179.975586,424.347137 
	C189.044357,434.668732 199.629944,443.467957 212.022202,449.431488 
	C220.945572,453.725769 230.353790,457.958710 239.990753,459.589996 
	C252.686371,461.739044 265.811340,461.548950 278.764435,461.920868 
	C290.419769,462.255524 302.092224,461.991333 313.757141,461.991486 
	C345.252380,461.991882 376.747925,461.933807 408.242157,462.112915 
	C410.562897,462.126099 413.697540,463.186829 415.060333,464.881256 
	C426.929077,479.638702 443.856415,484.949097 461.473114,478.530304 
	C471.419434,474.906311 479.427948,468.175964 482.963440,458.252594 
	C485.393646,451.431519 485.838867,443.622345 485.790680,436.263855 
	C485.715088,424.724792 472.334839,407.552521 461.704010,404.273254 
	C445.301544,399.213623 427.710114,403.959747 416.688110,418.191193 
	C414.462677,421.064575 412.110046,422.046509 408.675690,422.060272 
	C400.193146,422.094238 391.711884,422.518738 383.229675,422.534363 
	C381.576843,422.537415 379.921875,421.401520 377.356903,420.454681 
	C379.398254,418.740845 380.290649,417.764069 381.378540,417.114899 
	C389.100189,412.506775 392.818848,405.372528 394.541931,396.849976 
	C396.869324,385.338531 391.283905,371.459198 382.099182,366.263306 
	C369.361084,359.057190 355.071045,360.256622 345.358490,368.978607 
	C343.568604,370.585938 340.772980,371.728394 338.369324,371.871399 
	C331.777435,372.263489 325.142059,372.175293 318.532990,371.976410 
	C304.801300,371.563171 291.002625,371.653198 277.367920,370.229706 
	C263.992584,368.833313 254.705292,360.295532 248.906281,348.629395 
	C245.051743,340.875061 243.309433,332.322388 243.923157,323.398651 
	C244.333786,317.427826 244.000443,311.405853 244.000580,305.406769 
	C244.001465,268.579010 244.107071,231.750702 243.919510,194.923889 
	C243.879654,187.098999 250.387375,183.997650 253.757034,178.443695 
	C254.733292,180.822891 254.987671,182.900574 254.988953,184.978424 
	C255.012238,222.306107 254.878922,259.634644 255.127869,296.960663 
	C255.169525,303.206024 255.947342,309.740051 257.919647,315.626495 
	C265.256012,337.522339 281.562073,349.807434 303.741119,352.609955 
	C320.083130,354.674957 336.820618,353.725616 353.384064,353.866516 
	C360.153503,353.924103 366.931030,353.019104 373.700653,353.074036 
	C385.474548,353.169617 397.249115,353.580902 409.012909,354.098419 
	C410.767395,354.175598 413.029999,355.090485 414.096558,356.400330 
	C420.889282,364.742340 429.493988,370.037842 439.897552,372.401184 
	C454.900848,375.809479 474.366882,367.526031 480.816467,355.658478 
	C485.053619,347.861938 486.194183,339.763062 486.027832,331.165649 
	C485.680786,313.229156 472.504395,299.229401 456.191833,296.524078 
	C440.272003,293.883850 424.824585,296.628265 414.885864,312.046234 
	C414.178558,313.143494 412.653748,314.229767 411.404358,314.366882 
	C407.303070,314.817047 403.153748,314.975311 399.022461,314.982086 
	C371.360046,315.027435 343.697540,315.014709 316.035065,314.999329 
	C302.302765,314.991669 295.007507,307.749146 294.990601,294.167419 
	C294.985016,289.668121 295.156158,285.158875 294.893677,280.674835 
	C294.800446,279.082581 293.660553,277.551636 292.785614,275.077637 
	C292.750305,268.939026 292.666321,262.800262 292.688324,256.661865 
	C292.773926,232.777161 292.893188,208.892563 293.591064,184.765717 
z"/>
<path fill="#010910" opacity="1.000000" stroke="none" 
	d="
M292.998505,275.992706 
	C293.660553,277.551636 294.800446,279.082581 294.893677,280.674835 
	C295.156158,285.158875 294.985016,289.668121 294.990601,294.167419 
	C295.007507,307.749146 302.302765,314.991669 316.035065,314.999329 
	C343.697540,315.014709 371.360046,315.027435 399.022461,314.982086 
	C403.153748,314.975311 407.303070,314.817047 411.404358,314.366882 
	C412.653748,314.229767 414.178558,313.143494 414.885864,312.046234 
	C424.824585,296.628265 440.272003,293.883850 456.191833,296.524078 
	C472.504395,299.229401 485.680786,313.229156 486.027832,331.165649 
	C486.194183,339.763062 485.053619,347.861938 480.816467,355.658478 
	C474.366882,367.526031 454.900848,375.809479 439.897552,372.401184 
	C429.493988,370.037842 420.889282,364.742340 414.096558,356.400330 
	C413.029999,355.090485 410.767395,354.175598 409.012909,354.098419 
	C397.249115,353.580902 385.474548,353.169617 373.700653,353.074036 
	C366.931030,353.019104 360.153503,353.924103 353.384064,353.866516 
	C336.820618,353.725616 320.083130,354.674957 303.741119,352.609955 
	C281.562073,349.807434 265.256012,337.522339 257.919647,315.626495 
	C255.947342,309.740051 255.169525,303.206024 255.127869,296.960663 
	C254.878922,259.634644 255.012238,222.306107 254.988953,184.978424 
	C254.987671,182.900574 254.733292,180.822891 253.757034,178.443695 
	C250.387375,183.997650 243.879654,187.098999 243.919510,194.923889 
	C244.107071,231.750702 244.001465,268.579010 244.000580,305.406769 
	C244.000443,311.405853 244.333786,317.427826 243.923157,323.398651 
	C243.309433,332.322388 245.051743,340.875061 248.906281,348.629395 
	C254.705292,360.295532 263.992584,368.833313 277.367920,370.229706 
	C291.002625,371.653198 304.801300,371.563171 318.532990,371.976410 
	C325.142059,372.175293 331.777435,372.263489 338.369324,371.871399 
	C340.772980,371.728394 343.568604,370.585938 345.358490,368.978607 
	C355.071045,360.256622 369.361084,359.057190 382.099182,366.263306 
	C391.283905,371.459198 396.869324,385.338531 394.541931,396.849976 
	C392.818848,405.372528 389.100189,412.506775 381.378540,417.114899 
	C380.290649,417.764069 379.398254,418.740845 377.356903,420.454681 
	C379.921875,421.401520 381.576843,422.537415 383.229675,422.534363 
	C391.711884,422.518738 400.193146,422.094238 408.675690,422.060272 
	C412.110046,422.046509 414.462677,421.064575 416.688110,418.191193 
	C427.710114,403.959747 445.301544,399.213623 461.704010,404.273254 
	C472.334839,407.552521 485.715088,424.724792 485.790680,436.263855 
	C485.838867,443.622345 485.393646,451.431519 482.963440,458.252594 
	C479.427948,468.175964 471.419434,474.906311 461.473114,478.530304 
	C443.856415,484.949097 426.929077,479.638702 415.060333,464.881256 
	C413.697540,463.186829 410.562897,462.126099 408.242157,462.112915 
	C376.747925,461.933807 345.252380,461.991882 313.757141,461.991486 
	C302.092224,461.991333 290.419769,462.255524 278.764435,461.920868 
	C265.811340,461.548950 252.686371,461.739044 239.990753,459.589996 
	C230.353790,457.958710 220.945572,453.725769 212.022202,449.431488 
	C199.629944,443.467957 189.044357,434.668732 179.975586,424.347137 
	C171.207733,414.367981 163.251663,403.799988 159.794083,390.511169 
	C158.421509,385.235870 155.821320,380.285370 154.362091,375.025482 
	C153.192261,370.808716 152.333038,366.349030 152.324997,361.995361 
	C152.298447,347.611084 152.841064,333.226624 152.912048,318.840973 
	C152.941513,312.870209 152.022232,306.894196 152.062759,300.924164 
	C152.284286,268.288147 152.746857,235.653763 152.971970,203.017746 
	C153.117508,181.917618 153.095016,160.814987 152.951294,139.714828 
	C152.891312,130.907562 152.531067,122.087128 151.834671,113.310181 
	C151.661224,111.124184 150.010651,108.752457 148.421906,107.037926 
	C143.464218,101.687721 137.796509,97.021729 135.128021,89.815422 
	C131.171814,79.131645 130.405426,68.635880 134.753326,57.805298 
	C141.641266,40.647449 154.809464,34.126282 172.529449,32.774742 
	C191.481796,31.329206 210.926147,48.990257 212.539490,67.059143 
	C214.058411,84.070457 208.799149,96.444511 195.624420,106.385086 
	C193.964859,107.637245 192.235611,110.073463 192.197647,111.993881 
	C191.924286,125.818138 192.074448,139.650879 192.118622,153.480850 
	C192.120102,153.945755 192.422745,154.409714 193.044235,156.188339 
	C194.643906,154.541962 196.287415,153.556122 196.873016,152.134521 
	C201.001602,142.111679 214.041443,133.678314 227.296219,135.480103 
	C235.087662,136.539215 240.642380,141.120239 247.181122,144.117615 
	C248.596329,144.766357 249.151428,147.325668 250.064575,149.025452 
	C250.924225,150.625656 251.733566,152.252853 252.565063,153.868179 
	C253.097672,153.780151 253.630295,153.692123 254.162903,153.604095 
	C254.442734,151.979279 254.954926,150.355896 254.965088,148.729401 
	C255.036804,137.231567 254.913559,125.731941 255.060364,114.235535 
	C255.107407,110.552727 253.888931,108.034210 250.859680,105.825783 
	C232.737839,92.614426 229.675858,70.164970 239.262726,52.447670 
	C245.854919,40.264782 266.053650,29.742222 279.647400,32.170647 
	C301.599426,36.092224 313.188965,47.270969 315.408752,69.942871 
	C316.521759,81.310959 313.597046,92.526794 304.542633,100.938652 
	C299.972961,105.184036 295.118225,109.198708 293.183533,115.427414 
	C291.768372,109.888664 293.613159,106.511711 298.090088,103.105064 
	C302.697754,99.598930 306.818512,94.667732 309.452332,89.494568 
	C318.696320,71.337875 310.868256,48.255577 293.073792,39.283516 
	C273.980011,29.656355 250.601501,36.871513 240.903198,55.384567 
	C231.064056,74.166481 238.420700,97.666672 256.869751,106.109253 
	C256.931213,106.026390 256.781830,106.168892 256.919861,106.613197 
	C257.224121,109.034760 257.533997,111.011902 257.535645,112.989304 
	C257.585938,173.804779 257.593658,234.620285 257.659149,295.435730 
	C257.663422,299.422058 257.651672,303.484955 258.363464,307.381439 
	C262.914825,332.297607 284.759125,350.813080 310.202362,350.993439 
	C343.191193,351.227295 376.182953,351.142487 409.172791,351.017242 
	C412.910431,351.003082 415.065460,352.090363 417.250549,355.250214 
	C430.947937,375.057892 461.209229,376.037964 475.993469,357.363800 
	C488.689789,341.326935 486.229004,317.769409 470.619904,305.921570 
	C453.389404,292.843048 429.867828,296.021088 417.575592,313.308289 
	C415.477814,316.258484 413.275360,317.300934 409.757324,317.254059 
	C396.930206,317.083130 384.099121,317.232086 371.269562,317.216217 
	C351.442261,317.191711 331.613831,317.243561 311.788208,317.037506 
	C301.927032,316.935028 293.545502,309.703308 292.966553,300.435883 
	C292.459595,292.320496 292.949158,284.142853 292.998505,275.992706 
M229.939423,385.704987 
	C230.214996,385.887726 230.490570,386.070496 230.991043,386.722961 
	C231.299988,386.848419 231.608932,386.973846 231.958267,387.041168 
	C231.958267,387.041168 231.887527,387.040894 232.048447,387.604767 
	C232.380875,387.794586 232.713303,387.984436 233.168976,388.515045 
	C233.313416,388.734161 233.516693,388.850494 234.122147,389.474762 
	C235.386841,390.366150 236.651550,391.257568 237.924866,392.078552 
	C237.924866,392.078552 237.855286,392.092499 238.071808,392.666718 
	C238.606735,392.940735 239.141663,393.214752 239.721909,393.178223 
	C239.721909,393.178223 239.637009,393.480347 239.971619,394.039215 
	C242.253357,395.426697 244.535080,396.814209 247.169479,398.663544 
	C247.709595,398.858307 248.249710,399.053070 249.248260,399.762634 
	C258.297241,404.698822 268.068512,407.717072 278.253235,408.067810 
	C298.014221,408.748444 317.802887,408.613678 337.579285,408.876495 
	C339.877625,408.907013 342.170929,409.314880 344.476349,409.612396 
	C344.476349,409.612396 344.540710,409.623352 344.794403,410.207001 
	C346.162079,411.193634 347.529755,412.180267 348.928711,413.081360 
	C348.928711,413.081360 348.851196,413.129211 349.167084,413.746552 
	C360.710846,421.545807 374.260101,420.887787 383.060364,412.078796 
	C383.060364,412.078796 383.047180,412.148926 383.615021,412.035278 
	C383.809662,411.720398 384.004333,411.405518 384.089294,411.089111 
	C384.089294,411.089111 384.091034,411.198761 384.651733,411.054535 
	C384.828766,410.726440 385.005768,410.398376 385.073212,410.070190 
	C385.073212,410.070190 385.075745,410.179718 385.637146,410.035065 
	C385.810547,409.707275 385.983948,409.379486 386.087097,409.065857 
	C386.087097,409.065857 386.105957,409.135010 386.732635,408.851135 
	C395.189606,397.511261 394.944489,383.252167 386.057953,373.955353 
	C386.057953,373.955353 386.160614,373.883545 386.009583,373.257416 
	C385.046173,372.449707 384.082764,371.642029 383.053314,370.933533 
	C383.053314,370.933533 383.151978,370.866699 382.902496,370.225403 
	C371.332703,361.045410 356.186859,361.754852 346.946686,371.935059 
	C346.946686,371.935059 346.953766,371.865814 346.400238,371.996460 
	C346.217712,372.313354 346.035187,372.630249 345.930817,372.939941 
	C345.930817,372.939941 345.921265,372.862061 345.325348,373.030975 
	C344.785065,373.637634 344.244781,374.244293 343.340302,374.833710 
	C343.340302,374.833710 343.013062,374.994629 342.093018,374.785583 
	C324.102966,374.733002 306.104706,374.998291 288.125366,374.532654 
	C272.181427,374.119781 258.549133,368.417236 249.311539,354.609894 
	C243.339951,345.684204 241.743332,335.661865 241.770386,325.127380 
	C241.879868,282.483246 241.923691,239.838501 241.777069,197.194733 
	C241.758713,191.858627 242.023972,187.007202 246.757233,182.786835 
	C255.354721,169.818176 253.456955,154.245941 242.101288,144.582367 
	C231.266724,135.362244 215.703522,135.594940 205.188187,145.134308 
	C194.346161,154.970016 192.759811,170.309814 201.610443,183.228134 
	C205.988022,186.699448 206.312439,191.387253 206.292480,196.581940 
	C206.123779,240.491257 206.049957,284.401672 206.185654,328.311035 
	C206.239899,345.855865 210.688614,362.157745 221.970032,376.823212 
	C223.260208,378.265503 224.550369,379.707794 226.011612,381.621155 
	C226.276367,381.814606 226.541107,382.008087 227.014206,382.746887 
	C227.596146,383.246765 228.178101,383.746613 228.939255,384.706299 
	C229.134003,384.996155 229.402985,385.173218 229.939423,385.704987 
M425.078583,470.880768 
	C442.255707,483.489868 464.322235,480.490234 476.953857,463.829102 
	C488.929504,448.033173 485.805908,424.891357 470.086487,412.950745 
	C453.986786,400.721313 431.430359,403.316742 419.127686,419.084503 
	C416.846527,421.220062 416.114319,424.808258 411.686279,424.790802 
	C362.036987,424.594971 312.386047,424.747803 262.737549,424.461182 
	C246.179764,424.365631 230.849625,419.607269 217.632004,409.227753 
	C198.200317,393.968475 190.161163,373.295166 190.109695,349.246979 
	C189.941422,270.606750 190.023422,191.966003 189.863098,113.325775 
	C189.853958,108.843391 191.268738,106.218025 194.997879,103.646996 
	C208.808838,94.125130 214.059402,77.950768 209.162781,61.743214 
	C204.463852,46.190056 190.095337,35.335194 173.715805,34.964363 
	C157.008041,34.586102 142.190567,44.365459 136.609085,59.454342 
	C130.667770,75.516006 134.816849,92.616081 148.463852,102.412247 
	C154.112625,106.467079 155.154297,110.679688 155.141327,116.869972 
	C154.978912,194.510818 154.798660,272.153076 155.116913,349.792938 
	C155.303925,395.411316 176.141403,428.735931 217.270767,448.763092 
	C232.765213,456.307831 249.515991,459.133392 266.745575,459.139984 
	C316.061981,459.158783 365.378387,459.227600 414.974457,459.892761 
	C418.227631,463.359314 421.480774,466.825867 425.078583,470.880768 
z"/>
<path fill="#35A2CD" opacity="1.000000" stroke="none" 
	d="
M292.892059,275.535156 
	C292.949158,284.142853 292.459595,292.320496 292.966553,300.435883 
	C293.545502,309.703308 301.927032,316.935028 311.788208,317.037506 
	C331.613831,317.243561 351.442261,317.191711 371.269562,317.216217 
	C384.099121,317.232086 396.930206,317.083130 409.757324,317.254059 
	C413.275360,317.300934 415.477814,316.258484 417.575592,313.308289 
	C429.867828,296.021088 453.389404,292.843048 470.619904,305.921570 
	C486.229004,317.769409 488.689789,341.326935 475.993469,357.363800 
	C461.209229,376.037964 430.947937,375.057892 417.250549,355.250214 
	C415.065460,352.090363 412.910431,351.003082 409.172791,351.017242 
	C376.182953,351.142487 343.191193,351.227295 310.202362,350.993439 
	C284.759125,350.813080 262.914825,332.297607 258.363464,307.381439 
	C257.651672,303.484955 257.663422,299.422058 257.659149,295.435730 
	C257.593658,234.620285 257.585938,173.804779 257.535645,112.989304 
	C257.533997,111.011902 257.224121,109.034760 257.279785,106.557114 
	C257.986725,106.047066 258.471741,106.037399 258.998779,106.444008 
	C259.327545,109.992935 259.854767,113.124939 259.863373,116.258369 
	C259.940033,144.173355 259.925110,172.088608 259.922119,200.419708 
	C259.915741,202.222717 259.924438,203.609818 259.921936,205.466171 
	C259.923553,231.624771 259.936340,257.314117 259.934265,283.336029 
	C259.929108,284.112305 259.938843,284.556030 259.936584,285.374756 
	C259.933655,286.500122 259.942688,287.250458 259.937561,288.450439 
	C259.931641,291.599365 259.939880,294.298553 259.934937,297.451569 
	C260.567902,301.346008 261.214050,304.786682 261.838043,308.508484 
	C261.824860,309.165314 261.833832,309.541046 261.708374,310.203308 
	C262.681610,313.055420 263.789246,315.621002 264.950897,318.513031 
	C265.325317,319.892639 265.645721,320.945770 266.026062,322.309662 
	C266.717407,323.421722 267.348755,324.223022 267.987793,325.010498 
	C267.995422,324.996643 267.969482,325.019012 268.044617,325.355469 
	C271.137695,329.763519 273.281372,334.745056 278.964478,336.040314 
	C278.998779,336.002167 278.923004,336.071198 279.002319,336.404877 
	C280.327454,338.011627 281.414276,339.509949 282.845581,340.520325 
	C290.666351,346.041107 299.619141,348.134766 309.461548,348.876221 
	C344.949158,348.942902 379.968536,348.980560 415.157227,349.299438 
	C416.861481,351.077240 418.396393,352.573822 419.966248,354.037720 
	C420.001251,354.004974 419.925964,354.062469 419.997986,354.390747 
	C421.712250,356.489166 423.354431,358.259369 425.202576,360.054260 
	C425.408508,360.078979 425.823303,360.081055 425.967224,360.391266 
	C428.403870,362.292664 430.548462,364.176575 433.014893,365.424561 
	C443.949280,370.957306 465.209625,367.831329 474.592529,355.674347 
	C487.008148,339.587952 482.408844,315.152496 465.647430,305.268707 
	C450.267273,296.199371 433.808746,298.451965 421.139740,312.676514 
	C415.933289,318.522278 410.501343,320.087280 403.321838,319.985260 
	C372.216766,319.543243 341.107758,319.381470 309.629456,319.083405 
	C308.515167,319.015808 307.771545,318.982544 306.809326,318.769348 
	C306.060028,318.412415 305.529388,318.235443 304.676392,318.018188 
	C303.921906,317.949921 303.489807,317.921997 302.815277,317.673523 
	C300.396942,315.948395 298.221008,314.443787 296.024109,312.968384 
	C296.003113,312.997559 296.060730,312.954529 295.975128,312.614868 
	C290.939575,305.498901 289.960815,297.865967 289.987274,289.627808 
	C290.174835,231.232361 290.162964,172.835800 289.967896,114.440422 
	C289.949127,108.821686 291.684692,105.065781 296.152649,101.858612 
	C304.000824,96.225075 309.124451,88.638443 310.950500,78.538620 
	C310.658264,73.386696 310.332245,68.693825 309.923676,63.704952 
	C309.264801,62.859634 308.688446,62.310318 308.121338,61.415504 
	C308.092377,60.380039 308.054138,59.690079 307.944733,58.658806 
	C305.597626,55.182411 303.321686,52.047329 300.914246,48.726658 
	C300.585724,48.306545 300.356537,48.109489 299.911682,47.671036 
	C297.830261,45.913082 295.932281,44.434002 294.017334,42.970409 
	C294.000366,42.985901 294.033447,42.964802 293.833069,42.680286 
	C289.755402,40.942207 285.878113,39.488644 281.626862,38.005714 
	C280.503143,37.955349 279.753448,37.934353 278.648438,37.773140 
	C275.845917,37.727718 273.398682,37.822510 270.625916,37.916885 
	C269.867279,37.941299 269.434082,37.966137 268.674194,37.999409 
	C267.549652,38.311172 266.751892,38.614502 265.627502,38.925686 
	C264.867249,38.973679 264.433624,39.013817 263.645142,39.105701 
	C255.495804,42.024158 249.060532,46.582409 244.646774,54.201958 
	C239.626709,61.985119 238.306061,70.261627 239.149277,79.278488 
	C239.430557,80.049126 239.687424,80.540245 239.966034,81.399529 
	C240.662720,83.844658 241.337662,85.921623 242.079117,88.338196 
	C243.732224,90.519547 245.318817,92.361298 246.980225,94.517456 
	C248.340149,96.235977 249.625290,97.640091 251.092331,99.322823 
	C252.848541,100.754776 254.422867,101.908112 256.180542,103.339989 
	C256.512054,104.476387 256.660187,105.334251 256.808319,106.192108 
	C238.420700,97.666672 231.064056,74.166481 240.903198,55.384567 
	C250.601501,36.871513 273.980011,29.656355 293.073792,39.283516 
	C310.868256,48.255577 318.696320,71.337875 309.452332,89.494568 
	C306.818512,94.667732 302.697754,99.598930 298.090088,103.105064 
	C293.613159,106.511711 291.768372,109.888664 292.859741,115.574104 
	C292.926483,132.030182 292.864655,148.052795 292.785400,164.909363 
	C292.849976,167.542816 292.932007,169.342331 293.014038,171.141861 
	C292.942413,174.144211 292.870819,177.146561 292.778931,180.960693 
	C292.839081,182.850952 292.919525,183.929443 292.999969,185.007935 
	C292.893188,208.892563 292.773926,232.777161 292.688324,256.661865 
	C292.666321,262.800262 292.750305,268.939026 292.892059,275.535156 
z"/>
<path fill="#010910" opacity="1.000000" stroke="none" 
	d="
M293.349365,170.920853 
	C292.932007,169.342331 292.849976,167.542816 292.891602,165.367111 
	C295.722473,166.602615 295.357819,168.574509 293.349365,170.920853 
z"/>
<path fill="#010910" opacity="1.000000" stroke="none" 
	d="
M293.295532,184.886826 
	C292.919525,183.929443 292.839081,182.850952 292.882141,181.381729 
	C293.200806,182.249237 293.395935,183.507477 293.295532,184.886826 
z"/>
<path fill="#12BBF6" opacity="1.000000" stroke="none" 
	d="
M233.778809,388.864014 
	C233.516693,388.850494 233.313416,388.734161 233.002640,388.075867 
	C232.520035,387.438080 232.203781,387.239502 231.887527,387.040894 
	C231.887527,387.040894 231.958267,387.041168 232.017761,386.731079 
	C232.105331,386.190735 232.133377,385.960449 232.193787,385.514648 
	C231.578293,384.843750 230.930420,384.388428 230.225204,383.882996 
	C230.167847,383.832947 230.068634,383.717468 230.049713,383.368347 
	C228.652023,381.364563 227.273239,379.709930 225.707184,377.863770 
	C225.303009,377.188934 225.086090,376.705658 224.841492,375.878906 
	C223.848801,374.373138 222.883789,373.210785 221.959747,372.040344 
	C222.000687,372.032196 221.927200,372.073120 221.881271,371.730225 
	C220.853256,370.277954 219.871155,369.168579 218.656250,367.811951 
	C217.563858,365.451508 216.704285,363.338318 215.857330,360.870361 
	C215.218369,359.684204 214.566788,358.852844 213.880447,357.728790 
	C213.842163,357.043488 213.838623,356.650818 213.792603,355.941101 
	C213.169952,355.080902 212.589767,354.537811 211.974823,353.602905 
	C211.891556,351.901794 211.843033,350.592499 211.818787,348.926392 
	C211.221252,347.713257 210.599426,346.856934 209.942932,345.608398 
	C209.592422,343.151794 209.276566,341.087433 209.171173,338.712585 
	C208.955215,336.260437 208.528839,334.118744 208.075836,331.542786 
	C208.056137,329.078491 208.063080,327.048553 208.377014,324.862915 
	C210.570877,322.568359 210.608124,320.633484 208.038361,318.656372 
	C208.030960,317.890228 208.037933,317.452332 208.334076,316.887604 
	C208.433624,315.501740 208.244034,314.242676 208.042358,312.655762 
	C208.039490,311.890656 208.048706,311.453430 208.375153,310.852173 
	C210.548233,306.997498 210.893890,303.395844 208.038849,299.555908 
	C208.027588,297.425446 208.038773,295.720642 208.338577,293.888397 
	C208.435562,292.501984 208.243927,291.243011 208.031860,289.587280 
	C208.024933,288.131683 208.038422,287.072815 208.388031,285.828461 
	C209.146240,284.107635 209.932388,282.573303 209.936401,281.036896 
	C210.010391,252.755264 210.025040,224.473236 209.907959,196.191895 
	C209.900757,194.453781 208.697174,192.720642 208.021027,190.614304 
	C206.669586,187.811356 205.347336,185.379272 203.996658,182.582092 
	C202.576508,179.459961 201.184799,176.702957 199.697067,173.585007 
	C196.630905,167.414658 197.782364,161.696381 200.307678,155.885529 
	C201.405197,154.153885 202.176941,152.537979 203.125671,150.639938 
	C206.200668,147.909515 209.098694,145.461243 212.270264,143.197159 
	C215.037781,142.286606 217.531769,141.191849 220.459839,140.066971 
	C222.923813,140.040543 224.953720,140.044235 227.135315,140.362778 
	C228.597260,141.066330 229.907486,141.455017 231.519043,141.832870 
	C232.221054,141.852173 232.621719,141.882324 233.140656,142.235565 
	C234.249878,142.985245 235.240845,143.411850 236.579803,143.877197 
	C240.004517,147.201233 243.081238,150.486542 246.142029,154.183548 
	C248.792206,163.948441 248.916580,173.041016 243.487839,181.620422 
	C243.080978,182.263412 243.161835,183.215042 242.854187,184.291702 
	C241.783325,185.705292 240.874237,186.850372 239.612350,188.045349 
	C235.861099,190.216721 236.282455,191.827286 239.950653,193.450562 
	C239.963974,196.259720 239.943253,198.626465 239.543777,201.061096 
	C236.413559,203.914413 235.945435,216.103958 238.539108,218.625595 
	C238.841797,218.919907 239.462433,218.887177 239.961121,219.379150 
	C239.967438,220.499344 239.948288,221.246445 239.549622,222.061096 
	C238.450989,223.438736 237.124893,224.740814 237.107468,226.060150 
	C236.948471,238.098938 236.930557,250.142288 237.145172,262.179443 
	C237.168228,263.471832 238.931534,264.733215 239.914703,266.381317 
	C239.922165,267.499390 239.902466,268.245117 239.513184,269.058502 
	C235.735306,272.554718 236.060730,276.818817 239.930573,279.423126 
	C239.944199,281.222321 239.925018,282.607025 239.550446,284.049377 
	C235.741730,286.510681 235.800705,288.498657 239.926453,290.461609 
	C239.934097,293.939148 239.908813,296.964325 239.544006,300.039001 
	C236.573547,302.655029 236.023026,315.106934 238.477997,317.609375 
	C238.772736,317.909821 239.399643,317.884399 239.907043,318.445190 
	C239.917542,320.915741 239.893570,322.951141 239.609512,325.008606 
	C238.849503,325.328705 238.349594,325.626709 237.849686,325.924683 
	C238.526443,325.970093 239.203201,326.015472 239.914825,326.471008 
	C239.949341,328.252319 239.948990,329.623505 239.577133,331.056274 
	C235.748047,334.506165 236.517075,339.850372 241.232910,344.310181 
	C242.056778,346.143188 242.614655,347.716248 243.373306,349.185699 
	C247.924927,358.002045 253.096542,366.254913 263.059509,370.298859 
	C263.763550,370.676270 264.393188,370.820435 265.301575,371.025635 
	C266.069275,371.369080 266.558197,371.651550 267.139771,372.239227 
	C267.910065,372.981018 268.587708,373.417633 269.607666,373.845367 
	C270.632782,373.885498 271.315552,373.934540 272.094971,374.263519 
	C273.140076,374.670654 274.088562,374.797852 275.362366,374.939392 
	C276.118927,375.002808 276.550232,375.051849 277.060181,375.332581 
	C277.778625,375.666199 278.418396,375.768127 279.451477,375.869965 
	C280.891083,375.927307 281.937378,375.984772 283.168579,376.381104 
	C284.721649,377.143707 286.088165,377.930145 287.458160,377.936249 
	C305.933136,378.018677 324.408722,378.022675 342.883698,377.939270 
	C344.458466,377.932159 346.156464,377.415710 347.578796,376.701141 
	C351.706665,374.627289 355.579193,371.989380 359.818237,370.205902 
	C365.795441,367.691223 371.547455,368.461060 376.492981,373.009033 
	C378.572601,374.921509 380.517914,376.996155 382.710236,378.766785 
	C388.059998,383.087433 389.671722,393.938660 385.732910,399.660065 
	C376.474335,413.108734 364.962799,416.794983 349.389099,407.027435 
	C343.731018,403.478760 339.633026,403.408936 335.507568,406.940186 
	C319.698578,406.946014 304.354889,406.921295 288.830383,406.575623 
	C285.427124,406.180634 282.204712,406.106628 278.610413,406.041260 
	C277.495331,406.021912 276.752106,405.993927 275.886597,405.672913 
	C274.498932,405.275940 273.233612,405.171967 271.572174,405.066528 
	C270.124359,404.975067 269.072662,404.885040 267.878052,404.486633 
	C265.742889,403.503235 263.750610,402.828247 261.463837,402.158295 
	C260.778595,402.125580 260.387848,402.087799 259.867126,401.731689 
	C254.748489,398.984222 249.759842,396.555054 244.574478,394.125793 
	C244.377747,394.125641 243.988815,394.066193 243.926956,393.818329 
	C243.234543,393.396912 242.604004,393.223358 241.577133,393.084045 
	C240.666214,393.239014 240.151611,393.359680 239.637009,393.480347 
	C239.637009,393.480347 239.721909,393.178223 239.596680,393.032654 
	C238.932724,392.622223 238.393997,392.357361 237.855286,392.092529 
	C237.855286,392.092499 237.924866,392.078552 237.912170,391.785034 
	C237.247009,390.365479 236.594528,389.239441 235.893921,387.870941 
	C235.222488,387.622650 234.599182,387.616760 233.904114,387.920624 
	C233.814529,388.441559 233.796677,388.652802 233.778809,388.864014 
M362.448120,376.064423 
	C358.350067,375.705017 355.582245,377.531525 353.326172,380.925049 
	C349.792542,386.240356 350.548370,391.798065 352.162842,397.264404 
	C354.151764,403.998688 363.274445,407.978638 369.759918,405.340912 
	C379.050873,401.562164 382.984100,393.786987 379.675507,386.282898 
	C376.487000,379.051178 370.352661,376.924377 362.448120,376.064423 
M218.985550,153.202652 
	C211.592285,156.918610 208.021820,164.405121 210.642944,170.695160 
	C213.649078,177.909027 221.443970,181.399750 228.691345,178.777557 
	C235.077194,176.467087 239.386780,168.380936 237.478683,162.289734 
	C235.085983,154.651505 227.891953,150.868301 218.985550,153.202652 
z"/>
<path fill="#37A4CF" opacity="1.000000" stroke="none" 
	d="
M414.694794,459.276733 
	C365.378387,459.227600 316.061981,459.158783 266.745575,459.139984 
	C249.515991,459.133392 232.765213,456.307831 217.270767,448.763092 
	C176.141403,428.735931 155.303925,395.411316 155.116913,349.792938 
	C154.798660,272.153076 154.978912,194.510818 155.141327,116.869972 
	C155.154297,110.679688 154.112625,106.467079 148.463852,102.412247 
	C134.816849,92.616081 130.667770,75.516006 136.609085,59.454342 
	C142.190567,44.365459 157.008041,34.586102 173.715805,34.964363 
	C190.095337,35.335194 204.463852,46.190056 209.162781,61.743214 
	C214.059402,77.950768 208.808838,94.125130 194.997879,103.646996 
	C191.268738,106.218025 189.853958,108.843391 189.863098,113.325775 
	C190.023422,191.966003 189.941422,270.606750 190.109695,349.246979 
	C190.161163,373.295166 198.200317,393.968475 217.632004,409.227753 
	C230.849625,419.607269 246.179764,424.365631 262.737549,424.461182 
	C312.386047,424.747803 362.036987,424.594971 411.686279,424.790802 
	C416.114319,424.808258 416.846527,421.220062 419.576660,419.056641 
	C420.025665,419.028748 420.329590,419.311737 420.220520,419.640015 
	C418.407104,425.087067 414.956268,427.039398 409.492615,427.023315 
	C361.002533,426.880707 312.507721,427.263397 264.024719,426.657532 
	C253.749359,426.529114 242.937790,424.483459 233.372971,420.755951 
	C205.072342,409.726898 188.643021,383.536560 188.201477,354.085846 
	C187.302567,294.128296 187.294312,234.156143 187.134979,174.189407 
	C187.081024,153.882751 187.869171,133.574173 187.851089,113.266853 
	C187.846191,107.779121 189.511642,104.233528 194.186584,101.387329 
	C196.924103,99.720673 199.024719,96.909615 201.193588,94.423004 
	C216.171844,77.250526 207.916138,47.770390 185.668747,39.722149 
	C173.836227,35.441597 162.692841,36.833885 151.872284,43.663586 
	C141.669418,50.103424 134.356781,64.790260 136.371140,76.642174 
	C138.243698,87.659721 143.096603,96.844765 152.668045,103.000679 
	C156.038803,105.168587 157.053406,107.902267 157.073776,111.757141 
	C157.266037,148.162216 157.742569,184.566025 157.866577,220.971130 
	C158.016434,264.962006 158.036011,308.954346 157.839005,352.944855 
	C157.760315,370.511993 161.793930,386.840332 170.056274,402.296631 
	C178.689682,418.447113 191.201813,431.026825 206.467300,440.577606 
	C225.711655,452.617798 247.098770,457.286255 269.818176,457.141174 
	C315.973938,456.846436 362.132904,457.028687 408.290314,457.124725 
	C410.611237,457.129547 412.929993,458.176178 415.111176,458.872650 
	C414.972595,459.007568 414.694794,459.276733 414.694794,459.276733 
z"/>
<path fill="#1BB7EE" opacity="1.000000" stroke="none" 
	d="
M335.972870,406.909668 
	C339.633026,403.408936 343.731018,403.478760 349.389099,407.027435 
	C364.962799,416.794983 376.474335,413.108734 385.732910,399.660065 
	C389.671722,393.938660 388.059998,383.087433 382.710236,378.766785 
	C380.517914,376.996155 378.572601,374.921509 376.492981,373.009033 
	C371.547455,368.461060 365.795441,367.691223 359.818237,370.205902 
	C355.579193,371.989380 351.706665,374.627289 347.578796,376.701141 
	C346.156464,377.415710 344.458466,377.932159 342.883698,377.939270 
	C324.408722,378.022675 305.933136,378.018677 287.458160,377.936249 
	C286.088165,377.930145 284.721649,377.143707 283.638336,376.352051 
	C301.533600,375.997986 319.144165,376.046326 336.754303,375.980225 
	C338.841766,375.972382 340.926880,375.338379 343.013062,374.994629 
	C343.013062,374.994629 343.340302,374.833710 343.854309,374.818176 
	C344.885956,374.155792 345.403595,373.508911 345.921265,372.862061 
	C345.921265,372.862061 345.930817,372.939941 346.140747,372.838562 
	C346.551727,372.446747 346.752747,372.156281 346.953796,371.865814 
	C346.953766,371.865814 346.946686,371.935059 347.284485,371.940247 
	C348.404022,371.688232 349.305969,371.601685 349.949341,371.148193 
	C359.688934,364.283081 369.618683,363.943634 379.845123,370.048889 
	C380.777740,370.605682 382.041809,370.607269 383.151978,370.866699 
	C383.151978,370.866699 383.053314,370.933533 383.107239,371.231598 
	C384.160980,372.314270 385.160797,373.098907 386.160614,373.883545 
	C386.160614,373.883545 386.057953,373.955353 386.065826,374.281555 
	C386.379639,375.533447 386.530304,376.551025 387.015259,377.370819 
	C392.538422,386.707916 392.558105,396.026642 387.169586,405.434204 
	C386.549957,406.515961 386.447968,407.894226 386.105957,409.135010 
	C386.105957,409.135010 386.087097,409.065857 385.875305,409.174927 
	C385.467590,409.582550 385.271667,409.881134 385.075745,410.179718 
	C385.075745,410.179718 385.073212,410.070190 384.877625,410.183655 
	C384.485046,410.597687 384.288055,410.898224 384.091064,411.198761 
	C384.091034,411.198761 384.089294,411.089111 383.889771,411.189819 
	C383.475891,411.576691 383.261536,411.862823 383.047180,412.148926 
	C383.047180,412.148926 383.060364,412.078796 382.718903,412.070007 
	C375.804352,415.304443 369.114319,418.431549 361.539398,416.931610 
	C357.228088,416.077881 353.075348,414.423218 348.851196,413.129211 
	C348.851196,413.129211 348.928711,413.081360 348.872345,412.766541 
	C347.390900,411.508942 345.965790,410.566132 344.540710,409.623352 
	C344.540710,409.623352 344.476349,409.612396 344.403564,409.203735 
	C341.544800,408.166565 338.758850,407.538116 335.972870,406.909668 
z"/>
<path fill="#399CC4" opacity="1.000000" stroke="none" 
	d="
M342.553040,374.890106 
	C340.926880,375.338379 338.841766,375.972382 336.754303,375.980225 
	C319.144165,376.046326 301.533600,375.997986 283.453430,376.013123 
	C281.937378,375.984772 280.891083,375.927307 279.222931,375.702515 
	C278.061218,375.390411 277.521362,375.245636 276.981506,375.100891 
	C276.550232,375.051849 276.118927,375.002808 275.101471,374.744446 
	C273.676300,374.351288 272.837341,374.167450 271.998352,373.983582 
	C271.315552,373.934540 270.632782,373.885498 269.462646,373.574341 
	C268.332550,372.852814 267.689819,372.393433 267.047119,371.934052 
	C266.558197,371.651550 266.069275,371.369080 265.087219,370.835876 
	C264.057739,370.411987 263.521454,370.238831 262.985138,370.065643 
	C253.096542,366.254913 247.924927,358.002045 243.373306,349.185699 
	C242.614655,347.716248 242.056778,346.143188 241.223694,343.923553 
	C240.677063,339.150970 240.312866,335.072845 239.948654,330.994690 
	C239.948990,329.623505 239.949341,328.252319 239.932648,326.201843 
	C239.900299,325.343903 239.884949,325.165192 239.869614,324.986511 
	C239.893570,322.951141 239.917542,320.915741 239.957138,317.987549 
	C239.943039,311.393005 239.913284,305.691254 239.883545,299.989502 
	C239.908813,296.964325 239.934097,293.939148 239.973419,290.033447 
	C239.960251,287.432495 239.933060,285.712097 239.905853,283.991699 
	C239.925018,282.607025 239.944199,281.222321 239.976807,278.969818 
	C239.954437,275.064941 239.918610,272.027893 239.882782,268.990845 
	C239.902466,268.245117 239.922165,267.499390 239.963257,265.913818 
	C239.966141,250.713806 239.947647,236.353683 239.929138,221.993546 
	C239.948288,221.246445 239.967438,220.499344 240.001495,218.912018 
	C239.985123,212.378937 239.953842,206.686066 239.922546,200.993210 
	C239.943253,198.626465 239.963974,196.259720 239.990387,193.034012 
	C239.985779,190.781845 239.975464,189.388657 239.965149,187.995453 
	C240.874237,186.850372 241.783325,185.705292 243.126740,184.171173 
	C244.261322,183.414749 244.961578,183.047363 245.792053,182.802185 
	C245.922272,182.924362 246.182816,183.168625 246.182816,183.168625 
	C242.023972,187.007202 241.758713,191.858627 241.777069,197.194733 
	C241.923691,239.838501 241.879868,282.483246 241.770386,325.127380 
	C241.743332,335.661865 243.339951,345.684204 249.311539,354.609894 
	C258.549133,368.417236 272.181427,374.119781 288.125366,374.532654 
	C306.104706,374.998291 324.102966,374.733002 342.553040,374.890106 
z"/>
<path fill="#399CC4" opacity="1.000000" stroke="none" 
	d="
M204.025101,182.947205 
	C205.347336,185.379272 206.669586,187.811356 207.983780,191.083084 
	C208.001114,223.286484 208.026505,254.650238 208.051910,286.013977 
	C208.038422,287.072815 208.024933,288.131683 207.993591,289.989532 
	C208.000473,291.864288 208.025208,292.940063 208.049957,294.015808 
	C208.038773,295.720642 208.027588,297.425446 207.998169,300.014526 
	C208.005920,304.271240 208.031921,307.643707 208.057922,311.016174 
	C208.048706,311.453430 208.039490,311.890656 208.002960,313.057892 
	C207.998749,314.863403 208.021835,315.938904 208.044922,317.014435 
	C208.037933,317.452332 208.030960,317.890228 208.000610,319.086304 
	C208.008148,321.569153 208.039078,323.293884 208.070007,325.018585 
	C208.063080,327.048553 208.056137,329.078491 208.035309,331.955231 
	C208.334503,334.875702 208.647598,336.949371 208.960724,339.023071 
	C209.276566,341.087433 209.592422,343.151794 209.953308,345.945251 
	C210.597046,347.543945 211.195770,348.413574 211.794495,349.283203 
	C211.843033,350.592499 211.891556,351.901794 212.041656,353.902100 
	C212.707199,355.148132 213.271133,355.703156 213.835083,356.258179 
	C213.838623,356.650818 213.842163,357.043488 213.905121,358.064026 
	C214.591278,359.536346 215.218002,360.380768 215.844727,361.225159 
	C216.704285,363.338318 217.563858,365.451508 218.736816,368.139587 
	C220.009216,369.834015 220.968216,370.953552 221.927200,372.073120 
	C221.927200,372.073120 222.000687,372.032196 221.962189,372.409393 
	C222.053055,373.755341 222.182419,374.724091 222.179642,375.819611 
	C222.047501,375.946381 221.783081,376.199707 221.783081,376.199707 
	C210.688614,362.157745 206.239899,345.855865 206.185654,328.311035 
	C206.049957,284.401672 206.123779,240.491257 206.292480,196.581940 
	C206.312439,191.387253 205.988022,186.699448 201.651276,182.750916 
	C201.692108,182.273697 202.064606,181.949387 202.302094,182.088409 
	C203.034744,182.467361 203.529922,182.707275 204.025101,182.947205 
z"/>
<path fill="#37A4CF" opacity="1.000000" stroke="none" 
	d="
M419.873596,418.887329 
	C431.430359,403.316742 453.986786,400.721313 470.086487,412.950745 
	C485.805908,424.891357 488.929504,448.033173 476.953857,463.829102 
	C464.322235,480.490234 442.255707,483.489868 425.054291,470.427338 
	C425.029999,469.973907 425.326233,469.655579 425.659729,469.767334 
	C428.233032,470.971130 430.450165,472.112671 432.716370,473.146759 
	C443.853210,478.228882 455.260773,477.581573 465.268768,471.473328 
	C477.044678,464.286072 483.695099,453.081146 481.941956,438.668396 
	C479.294037,416.899963 458.858246,401.610382 437.013245,409.570801 
	C431.059418,411.740387 425.869873,416.007324 420.329590,419.311737 
	C420.329590,419.311737 420.025665,419.028748 419.873596,418.887329 
z"/>
<path fill="#399CC4" opacity="1.000000" stroke="none" 
	d="
M233.022400,141.912476 
	C232.621719,141.882324 232.221054,141.852173 231.335190,141.536469 
	C229.561218,140.849899 228.272415,140.448914 226.983627,140.047913 
	C224.953720,140.044235 222.923813,140.040543 220.090347,140.099518 
	C216.856766,141.112442 214.426743,142.062698 211.996719,143.012970 
	C209.098694,145.461243 206.200668,147.909515 202.854065,150.834457 
	C201.597626,152.874512 200.789749,154.437897 199.981873,156.001297 
	C197.782364,161.696381 196.630905,167.414658 199.571991,173.864166 
	C200.383484,176.985962 201.224045,179.467682 202.064606,181.949387 
	C202.064606,181.949387 201.692108,182.273697 201.503296,182.432968 
	C192.759811,170.309814 194.346161,154.970016 205.188187,145.134308 
	C215.703522,135.594940 231.266724,135.362244 242.101288,144.582367 
	C253.456955,154.245941 255.354721,169.818176 246.470032,182.977722 
	C246.182816,183.168625 245.922272,182.924362 245.906403,182.462524 
	C246.804321,179.886978 247.995316,177.847107 248.581589,175.646164 
	C250.597275,168.078903 251.890457,160.513031 246.157959,153.771851 
	C243.081238,150.486542 240.004517,147.201233 236.416229,143.589355 
	C234.943893,142.812698 233.983154,142.362579 233.022400,141.912476 
z"/>
<path fill="#399CC4" opacity="1.000000" stroke="none" 
	d="
M335.507568,406.940186 
	C338.758850,407.538116 341.544800,408.166565 344.398682,409.171448 
	C342.170929,409.314880 339.877625,408.907013 337.579285,408.876495 
	C317.802887,408.613678 298.014221,408.748444 278.253235,408.067810 
	C268.068512,407.717072 258.297241,404.698822 249.127869,399.366638 
	C249.007477,398.970673 249.220749,398.690155 249.578079,398.778687 
	C253.289307,399.928162 256.643188,400.989075 259.997101,402.049988 
	C260.387848,402.087799 260.778595,402.125580 261.650696,402.449432 
	C264.095001,403.421997 266.057983,404.108490 268.020935,404.795013 
	C269.072662,404.885040 270.124359,404.975067 271.862732,405.265442 
	C273.702515,405.632477 274.855713,405.799194 276.008881,405.965912 
	C276.752106,405.993927 277.495331,406.021912 278.958374,406.245697 
	C282.789185,406.593170 285.900208,406.744873 289.011200,406.896576 
	C304.354889,406.921295 319.698578,406.946014 335.507568,406.940186 
z"/>
<path fill="#399CC4" opacity="1.000000" stroke="none" 
	d="
M383.027222,370.546021 
	C382.041809,370.607269 380.777740,370.605682 379.845123,370.048889 
	C369.618683,363.943634 359.688934,364.283081 349.949341,371.148193 
	C349.305969,371.601685 348.404022,371.688232 347.251526,371.929077 
	C356.186859,361.754852 371.332703,361.045410 383.027222,370.546021 
z"/>
<path fill="#399CC4" opacity="1.000000" stroke="none" 
	d="
M386.419312,408.993073 
	C386.447968,407.894226 386.549957,406.515961 387.169586,405.434204 
	C392.558105,396.026642 392.538422,386.707916 387.015259,377.370819 
	C386.530304,376.551025 386.379639,375.533447 386.102356,374.230652 
	C394.944489,383.252167 395.189606,397.511261 386.419312,408.993073 
z"/>
<path fill="#399CC4" opacity="1.000000" stroke="none" 
	d="
M349.009155,413.437897 
	C353.075348,414.423218 357.228088,416.077881 361.539398,416.931610 
	C369.114319,418.431549 375.804352,415.304443 382.753418,412.079193 
	C374.260101,420.887787 360.710846,421.545807 349.009155,413.437897 
z"/>
<path fill="#37A4CF" opacity="1.000000" stroke="none" 
	d="
M424.881958,470.133179 
	C421.480774,466.825867 418.227631,463.359314 414.834625,459.584747 
	C414.694794,459.276733 414.972595,459.007568 415.411316,459.015747 
	C419.008789,462.567810 422.167511,466.111694 425.326233,469.655579 
	C425.326233,469.655579 425.029999,469.973907 424.881958,470.133179 
z"/>
<path fill="#399CC4" opacity="1.000000" stroke="none" 
	d="
M239.804321,393.759766 
	C240.151611,393.359680 240.666214,393.239014 241.786392,393.282654 
	C242.924255,393.653381 243.456528,393.859802 243.988815,394.066193 
	C243.988815,394.066193 244.377747,394.125641 244.706024,394.411072 
	C245.796616,395.685028 246.558945,396.673523 247.194885,397.796692 
	C247.068497,397.931366 246.816803,398.201721 246.816803,398.201721 
	C244.535080,396.814209 242.253357,395.426697 239.804321,393.759766 
z"/>
<path fill="#399CC4" opacity="1.000000" stroke="none" 
	d="
M224.869171,376.222382 
	C225.086090,376.705658 225.303009,377.188934 225.734863,378.203979 
	C226.082123,379.403900 226.214432,380.072083 226.219177,380.841461 
	C226.091629,380.942688 225.840530,381.150085 225.840530,381.150085 
	C224.550369,379.707794 223.260208,378.265503 221.876556,376.511475 
	C221.783081,376.199707 222.047501,375.946381 222.492706,375.908264 
	C223.581680,375.987549 224.225418,376.104980 224.869171,376.222382 
z"/>
<path fill="#399CC4" opacity="1.000000" stroke="none" 
	d="
M235.942047,388.113342 
	C236.594528,389.239441 237.247009,390.365479 237.907867,391.820251 
	C236.651550,391.257568 235.386841,390.366150 233.950470,389.169373 
	C233.796677,388.652802 233.814529,388.441559 234.220337,388.046753 
	C235.052887,387.946564 235.497467,388.029968 235.942047,388.113342 
z"/>
<path fill="#399CC4" opacity="1.000000" stroke="none" 
	d="
M344.667542,409.915161 
	C345.965790,410.566132 347.390900,411.508942 348.856689,412.809326 
	C347.529755,412.180267 346.162079,411.193634 344.667542,409.915161 
z"/>
<path fill="#399CC4" opacity="1.000000" stroke="none" 
	d="
M386.085083,373.570496 
	C385.160797,373.098907 384.160980,372.314270 383.140259,371.182007 
	C384.082764,371.642029 385.046173,372.449707 386.085083,373.570496 
z"/>
<path fill="#399CC4" opacity="1.000000" stroke="none" 
	d="
M228.760056,384.246460 
	C228.178101,383.746613 227.596146,383.246765 227.019897,382.352142 
	C227.025589,381.957397 227.242050,381.710327 227.485352,381.866272 
	C228.239655,382.586365 228.750671,383.150482 229.136536,383.847809 
	C229.011353,383.980988 228.760056,384.246460 228.760056,384.246460 
z"/>
<path fill="#399CC4" opacity="1.000000" stroke="none" 
	d="
M345.623291,372.946533 
	C345.403595,373.508911 344.885956,374.155792 344.036438,374.826843 
	C344.244781,374.244293 344.785065,373.637634 345.623291,372.946533 
z"/>
<path fill="#399CC4" opacity="1.000000" stroke="none" 
	d="
M237.963531,392.379639 
	C238.393997,392.357361 238.932724,392.622223 239.574020,393.187927 
	C239.141663,393.214752 238.606735,392.940735 237.963531,392.379639 
z"/>
<path fill="#399CC4" opacity="1.000000" stroke="none" 
	d="
M248.898651,399.109253 
	C248.249710,399.053070 247.709595,398.858307 246.993134,398.432617 
	C246.816803,398.201721 247.068497,397.931366 247.438538,397.910828 
	C248.279312,398.156921 248.750031,398.423553 249.220749,398.690155 
	C249.220749,398.690155 249.007477,398.970673 248.898651,399.109253 
z"/>
<path fill="#399CC4" opacity="1.000000" stroke="none" 
	d="
M231.967987,387.322815 
	C232.203781,387.239502 232.520035,387.438080 232.941010,387.905457 
	C232.713303,387.984436 232.380875,387.794586 231.967987,387.322815 
z"/>
<path fill="#399CC4" opacity="1.000000" stroke="none" 
	d="
M346.677002,371.931152 
	C346.752747,372.156281 346.551727,372.446747 346.101685,372.842194 
	C346.035187,372.630249 346.217712,372.313354 346.677002,371.931152 
z"/>
<path fill="#399CC4" opacity="1.000000" stroke="none" 
	d="
M226.915710,382.079468 
	C226.541107,382.008087 226.276367,381.814606 225.926071,381.385620 
	C225.840530,381.150085 226.091629,380.942688 226.365677,381.005341 
	C226.839828,381.282745 227.040604,381.496857 227.242050,381.710327 
	C227.242050,381.710327 227.025589,381.957397 226.915710,382.079468 
z"/>
<path fill="#399CC4" opacity="1.000000" stroke="none" 
	d="
M232.161438,385.730194 
	C232.133377,385.960449 232.105331,386.190735 231.997589,386.760132 
	C231.608932,386.973846 231.299988,386.848419 230.993683,386.351440 
	C230.996323,385.979919 231.222900,385.703583 231.456512,385.729980 
	C231.690140,385.756378 232.161438,385.730194 232.161438,385.730194 
z"/>
<path fill="#399CC4" opacity="1.000000" stroke="none" 
	d="
M385.356445,410.107391 
	C385.271667,409.881134 385.467590,409.582550 385.910431,409.167816 
	C385.983948,409.379486 385.810547,409.707275 385.356445,410.107391 
z"/>
<path fill="#399CC4" opacity="1.000000" stroke="none" 
	d="
M384.371399,411.126648 
	C384.288055,410.898224 384.485046,410.597687 384.932434,410.183716 
	C385.005768,410.398376 384.828766,410.726440 384.371399,411.126648 
z"/>
<path fill="#399CC4" opacity="1.000000" stroke="none" 
	d="
M383.331116,412.092102 
	C383.261536,411.862823 383.475891,411.576691 383.944580,411.190613 
	C384.004333,411.405518 383.809662,411.720398 383.331116,412.092102 
z"/>
<path fill="#399CC4" opacity="1.000000" stroke="none" 
	d="
M230.881226,386.116577 
	C230.490570,386.070496 230.214996,385.887726 229.978058,385.355896 
	C230.016678,385.006775 230.289551,384.778931 230.441193,384.937042 
	C230.797684,385.303314 231.007721,385.506134 231.222900,385.703583 
	C231.222900,385.703583 230.996323,385.979919 230.881226,386.116577 
z"/>
<path fill="#399CC4" opacity="1.000000" stroke="none" 
	d="
M229.881439,385.122131 
	C229.402985,385.173218 229.134003,384.996155 228.849655,384.476379 
	C228.760056,384.246460 229.011353,383.980988 229.337677,383.868408 
	C229.664001,383.755798 230.068634,383.717468 230.068634,383.717468 
	C230.068634,383.717468 230.167847,383.832947 230.206421,384.095032 
	C230.244980,384.357086 230.289551,384.778931 230.289551,384.778931 
	C230.289551,384.778931 230.016678,385.006775 229.881439,385.122131 
z"/>
<path fill="#13BBF6" opacity="1.000000" stroke="none" 
	d="
M414.987915,349.018188 
	C379.968536,348.980560 344.949158,348.942902 309.323090,348.560974 
	C302.992340,345.951050 297.252869,343.723389 291.549347,341.407135 
	C287.316345,339.688080 283.130096,337.854004 278.923004,336.071198 
	C278.923004,336.071198 278.998779,336.002167 278.901733,335.701447 
	C275.192932,331.940155 271.581207,328.479584 267.969482,325.019012 
	C267.969482,325.019012 267.995422,324.996643 267.963318,324.676300 
	C267.276184,323.570282 266.621155,322.784607 265.966125,321.998901 
	C265.645721,320.945770 265.325317,319.892639 264.954163,318.121826 
	C263.883209,314.908356 262.863007,312.412567 261.842804,309.916748 
	C261.833832,309.541046 261.824860,309.165314 261.935120,308.125305 
	C261.352295,303.973267 260.650208,300.485504 259.948120,296.997772 
	C259.939880,294.298553 259.931641,291.599365 260.221069,288.350037 
	C260.328644,286.866547 260.138580,285.933136 259.948547,284.999725 
	C259.938843,284.556030 259.929108,284.112305 260.284180,283.159790 
	C261.088867,281.632507 261.863800,280.630798 261.915802,279.592896 
	C262.330292,271.320892 262.905762,263.040405 262.861877,254.765564 
	C262.782898,239.875854 262.370911,224.986328 261.911499,210.102463 
	C261.858398,208.381912 260.621277,206.697876 259.933136,204.996918 
	C259.924438,203.609818 259.915741,202.222717 260.273682,200.244339 
	C261.093262,197.806061 261.923004,195.962280 261.938812,194.111542 
	C262.052124,180.847336 262.000397,167.581741 262.000122,154.316574 
	C261.999817,140.200653 262.117767,126.082558 261.862427,111.971237 
	C261.826294,109.973198 259.970398,108.008087 258.956757,106.027740 
	C258.471741,106.037399 257.986725,106.047066 257.141785,106.112808 
	C256.781830,106.168892 256.931213,106.026390 256.869751,106.109253 
	C256.660187,105.334251 256.512054,104.476387 256.101074,102.993073 
	C254.195618,101.259811 252.553024,100.152000 250.910431,99.044205 
	C249.625290,97.640091 248.340149,96.235977 246.934494,94.156288 
	C245.213501,91.653343 243.613037,89.825966 242.012604,87.998589 
	C241.337662,85.921623 240.662720,83.844658 240.105713,81.205002 
	C239.857376,80.094536 239.491135,79.546745 239.124878,78.998962 
	C238.306061,70.261627 239.626709,61.985119 244.994812,54.142593 
	C250.687531,49.918293 255.816422,46.031059 260.891663,42.075001 
	C262.024445,41.192013 262.968842,40.067348 263.999969,39.053955 
	C264.433624,39.013817 264.867249,38.973679 265.860962,39.110603 
	C267.280975,38.855434 268.140930,38.423203 269.000916,37.990971 
	C269.434082,37.966137 269.867279,37.941299 270.930725,38.131775 
	C274.041901,38.202511 276.522827,38.057934 279.003723,37.913357 
	C279.753448,37.934353 280.503143,37.955349 281.769928,38.318405 
	C286.202484,40.095242 290.117950,41.530018 294.033447,42.964798 
	C294.033447,42.964802 294.000366,42.985901 294.087097,43.314415 
	C296.147614,45.078583 298.121368,46.514240 300.095123,47.949902 
	C300.356537,48.109489 300.585724,48.306545 300.926361,49.107815 
	C302.011688,53.806190 303.439606,57.575653 308.015930,59.000114 
	C308.054138,59.690079 308.092377,60.380039 308.178101,61.733131 
	C308.819122,62.931160 309.412659,63.466057 310.006226,64.000954 
	C310.332245,68.693825 310.658264,73.386696 310.616119,78.628517 
	C309.456635,79.754593 308.193542,80.176758 307.945435,80.932259 
	C304.683197,90.865196 296.683136,97.122383 290.199432,104.618690 
	C288.171173,106.963715 287.230713,110.946098 287.199585,114.192467 
	C287.102997,124.264702 287.997467,134.345200 287.940887,144.419296 
	C287.772278,174.448532 287.311035,204.476044 287.013855,234.504700 
	C286.927124,243.266129 286.889862,252.031219 287.037750,260.791107 
	C287.264862,274.240417 287.770142,287.685364 287.956970,301.134949 
	C288.038879,307.030609 290.738312,310.811737 296.060730,312.954529 
	C296.060730,312.954529 296.003113,312.997559 296.088135,313.308533 
	C297.664490,316.338470 299.096985,319.152161 303.057678,317.894043 
	C303.489807,317.921997 303.921906,317.949921 304.748169,318.251526 
	C305.770844,318.666534 306.399414,318.807892 307.027954,318.949280 
	C307.771545,318.982544 308.515167,319.015808 309.746582,319.434326 
	C311.942627,320.544373 313.633118,321.847351 315.361908,321.900269 
	C326.635132,322.245209 337.916962,322.471558 349.195404,322.448059 
	C369.411560,322.405945 389.627319,322.071106 409.843231,322.070496 
	C414.188416,322.070343 417.597229,321.032745 420.201202,317.411469 
	C425.065582,310.646759 431.827545,305.752838 439.764374,304.621674 
	C446.168213,303.709015 453.021179,305.688110 459.620941,306.727142 
	C460.481812,306.862671 461.529663,309.043640 461.528687,310.276398 
	C461.528015,311.089691 459.823822,312.524750 458.847351,312.555206 
	C457.648956,312.592529 456.229126,311.658295 455.249420,310.765961 
	C454.357605,309.953613 453.926575,308.635376 453.090454,307.191345 
	C446.914825,312.493347 438.770020,315.013550 436.527832,323.744965 
	C436.144470,325.237701 434.773834,326.540131 433.685730,327.777924 
	C428.132233,334.095459 431.689301,345.691986 439.849152,347.702850 
	C448.201569,349.761139 455.614441,348.577637 460.818481,341.015900 
	C462.231537,338.962677 464.167664,336.122192 463.696838,334.164032 
	C462.782471,330.360992 460.315979,326.935394 458.527924,323.335876 
	C457.873016,322.017487 456.714386,319.516937 456.806000,319.468048 
	C459.673676,317.937897 462.605835,315.833099 465.664093,315.600006 
	C467.701141,315.444763 471.498932,317.708954 471.829468,319.410645 
	C473.291595,326.938477 479.164703,333.235382 475.717682,342.405457 
	C473.595398,348.051483 470.795258,353.130920 468.045807,358.313507 
	C467.361542,359.603302 465.044495,360.643158 463.425201,360.722565 
	C450.885101,361.337372 438.285828,364.031342 425.823303,360.081055 
	C425.823303,360.081055 425.408508,360.078979 425.196228,359.673950 
	C425.067108,355.814758 422.921539,354.525726 419.925964,354.062469 
	C419.925964,354.062469 420.001251,354.004974 419.960114,353.677856 
	C419.192230,350.862946 418.756165,348.044281 414.987915,349.018188 
M265.227295,66.800613 
	C264.752808,69.208000 263.795929,71.636971 263.902527,74.018349 
	C264.136383,79.242851 267.880554,83.256248 272.683197,84.159317 
	C278.050018,85.168488 282.985779,82.918610 285.369263,78.376610 
	C287.731262,73.875557 286.797485,68.208275 283.099915,64.602959 
	C277.979675,59.610565 271.292572,60.215042 265.227295,66.800613 
M469.787781,336.852631 
	C468.307770,337.449829 466.827759,338.047028 465.347748,338.644226 
	C466.281097,340.538849 467.214447,342.433472 468.147797,344.328094 
	C469.062622,342.641449 470.062683,340.992340 470.833160,339.242157 
	C471.029175,338.796844 470.496063,338.030579 469.787781,336.852631 
z"/>
<path fill="#17B9F2" opacity="1.000000" stroke="none" 
	d="
M425.967224,360.391266 
	C438.285828,364.031342 450.885101,361.337372 463.425201,360.722565 
	C465.044495,360.643158 467.361542,359.603302 468.045807,358.313507 
	C470.795258,353.130920 473.595398,348.051483 475.717682,342.405457 
	C479.164703,333.235382 473.291595,326.938477 471.829468,319.410645 
	C471.498932,317.708954 467.701141,315.444763 465.664093,315.600006 
	C462.605835,315.833099 459.673676,317.937897 456.806000,319.468048 
	C456.714386,319.516937 457.873016,322.017487 458.527924,323.335876 
	C460.315979,326.935394 462.782471,330.360992 463.696838,334.164032 
	C464.167664,336.122192 462.231537,338.962677 460.818481,341.015900 
	C455.614441,348.577637 448.201569,349.761139 439.849152,347.702850 
	C431.689301,345.691986 428.132233,334.095459 433.685730,327.777924 
	C434.773834,326.540131 436.144470,325.237701 436.527832,323.744965 
	C438.770020,315.013550 446.914825,312.493347 453.090454,307.191345 
	C453.926575,308.635376 454.357605,309.953613 455.249420,310.765961 
	C456.229126,311.658295 457.648956,312.592529 458.847351,312.555206 
	C459.823822,312.524750 461.528015,311.089691 461.528687,310.276398 
	C461.529663,309.043640 460.481812,306.862671 459.620941,306.727142 
	C453.021179,305.688110 446.168213,303.709015 439.764374,304.621674 
	C431.827545,305.752838 425.065582,310.646759 420.201202,317.411469 
	C417.597229,321.032745 414.188416,322.070343 409.843231,322.070496 
	C389.627319,322.071106 369.411560,322.405945 349.195404,322.448059 
	C337.916962,322.471558 326.635132,322.245209 315.361908,321.900269 
	C313.633118,321.847351 311.942627,320.544373 310.117279,319.468628 
	C341.107758,319.381470 372.216766,319.543243 403.321838,319.985260 
	C410.501343,320.087280 415.933289,318.522278 421.139740,312.676514 
	C433.808746,298.451965 450.267273,296.199371 465.647430,305.268707 
	C482.408844,315.152496 487.008148,339.587952 474.592529,355.674347 
	C465.209625,367.831329 443.949280,370.957306 433.014893,365.424561 
	C430.548462,364.176575 428.403870,362.292664 425.967224,360.391266 
M442.810394,344.040741 
	C447.678375,346.106659 452.074432,345.144714 455.601685,341.414459 
	C458.764221,338.069946 459.118195,333.923981 457.234985,329.780212 
	C455.247833,325.407684 451.610718,323.102966 446.864868,323.357483 
	C441.858551,323.625946 438.585754,326.642090 437.040619,331.334167 
	C435.483612,336.062408 437.144562,339.886169 442.810394,344.040741 
z"/>
<path fill="#17B9F2" opacity="1.000000" stroke="none" 
	d="
M295.975128,312.614868 
	C290.738312,310.811737 288.038879,307.030609 287.956970,301.134949 
	C287.770142,287.685364 287.264862,274.240417 287.037750,260.791107 
	C286.889862,252.031219 286.927124,243.266129 287.013855,234.504700 
	C287.311035,204.476044 287.772278,174.448532 287.940887,144.419296 
	C287.997467,134.345200 287.102997,124.264702 287.199585,114.192467 
	C287.230713,110.946098 288.171173,106.963715 290.199432,104.618690 
	C296.683136,97.122383 304.683197,90.865196 307.945435,80.932259 
	C308.193542,80.176758 309.456635,79.754593 310.582275,79.087585 
	C309.124451,88.638443 304.000824,96.225075 296.152649,101.858612 
	C291.684692,105.065781 289.949127,108.821686 289.967896,114.440422 
	C290.162964,172.835800 290.174835,231.232361 289.987274,289.627808 
	C289.960815,297.865967 290.939575,305.498901 295.975128,312.614868 
z"/>
<path fill="#17B9F2" opacity="1.000000" stroke="none" 
	d="
M258.998779,106.444008 
	C259.970398,108.008087 261.826294,109.973198 261.862427,111.971237 
	C262.117767,126.082558 261.999817,140.200653 262.000122,154.316574 
	C262.000397,167.581741 262.052124,180.847336 261.938812,194.111542 
	C261.923004,195.962280 261.093262,197.806061 260.288757,199.828430 
	C259.925110,172.088608 259.940033,144.173355 259.863373,116.258369 
	C259.854767,113.124939 259.327545,109.992935 258.998779,106.444008 
z"/>
<path fill="#17B9F2" opacity="1.000000" stroke="none" 
	d="
M259.921936,205.466171 
	C260.621277,206.697876 261.858398,208.381912 261.911499,210.102463 
	C262.370911,224.986328 262.782898,239.875854 262.861877,254.765564 
	C262.905762,263.040405 262.330292,271.320892 261.915802,279.592896 
	C261.863800,280.630798 261.088867,281.632507 260.299011,282.827209 
	C259.936340,257.314117 259.923553,231.624771 259.921936,205.466171 
z"/>
<path fill="#17B9F2" opacity="1.000000" stroke="none" 
	d="
M279.002319,336.404877 
	C283.130096,337.854004 287.316345,339.688080 291.549347,341.407135 
	C297.252869,343.723389 302.992340,345.951050 308.854858,348.531921 
	C299.619141,348.134766 290.666351,346.041107 282.845581,340.520325 
	C281.414276,339.509949 280.327454,338.011627 279.002319,336.404877 
z"/>
<path fill="#17B9F2" opacity="1.000000" stroke="none" 
	d="
M263.645142,39.105698 
	C262.968842,40.067348 262.024445,41.192013 260.891663,42.075001 
	C255.816422,46.031059 250.687531,49.918293 245.229950,53.889729 
	C249.060532,46.582409 255.495804,42.024158 263.645142,39.105698 
z"/>
<path fill="#17B9F2" opacity="1.000000" stroke="none" 
	d="
M268.044617,325.355469 
	C271.581207,328.479584 275.192932,331.940155 278.867401,335.739594 
	C273.281372,334.745056 271.137695,329.763519 268.044617,325.355469 
z"/>
<path fill="#17B9F2" opacity="1.000000" stroke="none" 
	d="
M307.944733,58.658806 
	C303.439606,57.575653 302.011688,53.806190 301.057892,49.293404 
	C303.321686,52.047329 305.597626,55.182411 307.944733,58.658806 
z"/>
<path fill="#17B9F2" opacity="1.000000" stroke="none" 
	d="
M259.934937,297.451569 
	C260.650208,300.485504 261.352295,303.973267 261.957275,307.844177 
	C261.214050,304.786682 260.567902,301.346008 259.934937,297.451569 
z"/>
<path fill="#17B9F2" opacity="1.000000" stroke="none" 
	d="
M293.833069,42.680283 
	C290.117950,41.530018 286.202484,40.095242 282.143921,38.347775 
	C285.878113,39.488644 289.755402,40.942207 293.833069,42.680283 
z"/>
<path fill="#17B9F2" opacity="1.000000" stroke="none" 
	d="
M278.648438,37.773140 
	C276.522827,38.057934 274.041901,38.202511 271.256226,38.132195 
	C273.398682,37.822510 275.845917,37.727718 278.648438,37.773140 
z"/>
<path fill="#17B9F2" opacity="1.000000" stroke="none" 
	d="
M302.815277,317.673523 
	C299.096985,319.152161 297.664490,316.338470 296.109131,313.279327 
	C298.221008,314.443787 300.396942,315.948395 302.815277,317.673523 
z"/>
<path fill="#17B9F2" opacity="1.000000" stroke="none" 
	d="
M419.997986,354.390747 
	C422.921539,354.525726 425.067108,355.814758 424.990295,359.649231 
	C423.354431,358.259369 421.712250,356.489166 419.997986,354.390747 
z"/>
<path fill="#17B9F2" opacity="1.000000" stroke="none" 
	d="
M415.157227,349.299438 
	C418.756165,348.044281 419.192230,350.862946 419.925110,353.710571 
	C418.396393,352.573822 416.861481,351.077240 415.157227,349.299438 
z"/>
<path fill="#17B9F2" opacity="1.000000" stroke="none" 
	d="
M299.911682,47.671032 
	C298.121368,46.514240 296.147614,45.078583 294.104095,43.298923 
	C295.932281,44.434002 297.830261,45.913082 299.911682,47.671032 
z"/>
<path fill="#17B9F2" opacity="1.000000" stroke="none" 
	d="
M242.079102,88.338196 
	C243.613037,89.825966 245.213501,91.653343 246.859680,93.841881 
	C245.318817,92.361298 243.732224,90.519547 242.079102,88.338196 
z"/>
<path fill="#17B9F2" opacity="1.000000" stroke="none" 
	d="
M261.708374,310.203308 
	C262.863007,312.412567 263.883209,314.908356 264.900146,317.795349 
	C263.789246,315.621002 262.681610,313.055420 261.708374,310.203308 
z"/>
<path fill="#17B9F2" opacity="1.000000" stroke="none" 
	d="
M251.092331,99.322815 
	C252.553024,100.152000 254.195618,101.259811 255.917694,102.714531 
	C254.422867,101.908112 252.848541,100.754776 251.092331,99.322815 
z"/>
<path fill="#17B9F2" opacity="1.000000" stroke="none" 
	d="
M268.674194,37.999409 
	C268.140930,38.423203 267.280975,38.855434 266.187561,39.102753 
	C266.751892,38.614502 267.549652,38.311172 268.674194,37.999409 
z"/>
<path fill="#17B9F2" opacity="1.000000" stroke="none" 
	d="
M259.936584,285.374756 
	C260.138580,285.933136 260.328644,286.866547 260.235229,287.900360 
	C259.942688,287.250458 259.933655,286.500122 259.936584,285.374756 
z"/>
<path fill="#17B9F2" opacity="1.000000" stroke="none" 
	d="
M266.026062,322.309662 
	C266.621155,322.784607 267.276184,323.570282 267.955688,324.690125 
	C267.348755,324.223022 266.717407,323.421722 266.026062,322.309662 
z"/>
<path fill="#17B9F2" opacity="1.000000" stroke="none" 
	d="
M306.809326,318.769348 
	C306.399414,318.807892 305.770844,318.666534 305.070526,318.291809 
	C305.529388,318.235443 306.060028,318.412415 306.809326,318.769348 
z"/>
<path fill="#17B9F2" opacity="1.000000" stroke="none" 
	d="
M309.923706,63.704952 
	C309.412659,63.466057 308.819122,62.931160 308.168823,62.078632 
	C308.688446,62.310318 309.264801,62.859634 309.923706,63.704952 
z"/>
<path fill="#17B9F2" opacity="1.000000" stroke="none" 
	d="
M239.149292,79.278481 
	C239.491135,79.546745 239.857376,80.094536 240.083954,80.836838 
	C239.687424,80.540245 239.430557,80.049126 239.149292,79.278481 
z"/>
<path fill="#1BB7EE" opacity="1.000000" stroke="none" 
	d="
M362.865540,376.105408 
	C370.352661,376.924377 376.487000,379.051178 379.675507,386.282898 
	C382.984100,393.786987 379.050873,401.562164 369.759918,405.340912 
	C363.274445,407.978638 354.151764,403.998688 352.162842,397.264404 
	C350.548370,391.798065 349.792542,386.240356 353.326172,380.925049 
	C355.582245,377.531525 358.350067,375.705017 362.865540,376.105408 
M370.540955,381.819885 
	C368.944733,381.422882 367.362000,380.758514 365.749878,380.677338 
	C360.148163,380.395294 355.640442,384.136841 354.831757,389.514587 
	C353.920380,395.575165 357.178772,400.698242 362.823608,402.080017 
	C368.262817,403.411407 373.766907,400.498596 375.707306,395.261932 
	C377.468170,390.509735 375.995361,386.253845 370.540955,381.819885 
z"/>
<path fill="#26AFE1" opacity="1.000000" stroke="none" 
	d="
M219.355713,153.078247 
	C227.891953,150.868301 235.085983,154.651505 237.478683,162.289734 
	C239.386780,168.380936 235.077194,176.467087 228.691345,178.777557 
	C221.443970,181.399750 213.649078,177.909027 210.642944,170.695160 
	C208.021820,164.405121 211.592285,156.918610 219.355713,153.078247 
M234.064224,161.778137 
	C230.850403,156.248169 226.548096,153.978287 221.448639,155.122238 
	C217.149887,156.086563 213.557999,160.157837 213.079758,164.645859 
	C212.590149,169.240540 214.309738,172.843811 218.231491,175.228500 
	C222.101242,177.581543 226.227097,177.809402 230.033020,175.253830 
	C234.592056,172.192566 235.741028,167.719131 234.064224,161.778137 
z"/>
<path fill="#1EB6EC" opacity="1.000000" stroke="none" 
	d="
M208.388031,285.828461 
	C208.026505,254.650238 208.001114,223.286484 208.012970,191.453964 
	C208.697174,192.720642 209.900757,194.453781 209.907959,196.191895 
	C210.025040,224.473236 210.010391,252.755264 209.936401,281.036896 
	C209.932388,282.573303 209.146240,284.107635 208.388031,285.828461 
z"/>
<path fill="#17B9F2" opacity="1.000000" stroke="none" 
	d="
M239.549622,222.061096 
	C239.947647,236.353683 239.966141,250.713806 239.936096,265.541443 
	C238.931534,264.733215 237.168228,263.471832 237.145172,262.179443 
	C236.930557,250.142288 236.948471,238.098938 237.107468,226.060150 
	C237.124893,224.740814 238.450989,223.438736 239.549622,222.061096 
z"/>
<path fill="#1EB6EC" opacity="1.000000" stroke="none" 
	d="
M246.142029,154.183548 
	C251.890457,160.513031 250.597275,168.078903 248.581589,175.646164 
	C247.995316,177.847107 246.804321,179.886978 245.776184,182.340332 
	C244.961578,183.047363 244.261322,183.414749 243.288528,183.902649 
	C243.161835,183.215042 243.080978,182.263412 243.487839,181.620422 
	C248.916580,173.041016 248.792206,163.948441 246.142029,154.183548 
z"/>
<path fill="#17B9F2" opacity="1.000000" stroke="none" 
	d="
M239.543777,201.061096 
	C239.953842,206.686066 239.985123,212.378937 239.976044,218.538940 
	C239.462433,218.887177 238.841797,218.919907 238.539108,218.625595 
	C235.945435,216.103958 236.413559,203.914413 239.543777,201.061096 
z"/>
<path fill="#17B9F2" opacity="1.000000" stroke="none" 
	d="
M239.544006,300.039001 
	C239.913284,305.691254 239.943039,311.393005 239.922699,317.552368 
	C239.399643,317.884399 238.772736,317.909821 238.477997,317.609375 
	C236.023026,315.106934 236.573547,302.655029 239.544006,300.039001 
z"/>
<path fill="#1BB7EE" opacity="1.000000" stroke="none" 
	d="
M249.578079,398.778687 
	C248.750031,398.423553 248.279312,398.156921 247.564941,397.776184 
	C246.558945,396.673523 245.796616,395.685028 244.902756,394.411224 
	C249.759842,396.555054 254.748489,398.984222 259.867126,401.731689 
	C256.643188,400.989075 253.289307,399.928162 249.578079,398.778687 
z"/>
<path fill="#17B9F2" opacity="1.000000" stroke="none" 
	d="
M239.577133,331.056274 
	C240.312866,335.072845 240.677063,339.150970 241.050476,343.615723 
	C236.517075,339.850372 235.748047,334.506165 239.577133,331.056274 
z"/>
<path fill="#17B9F2" opacity="1.000000" stroke="none" 
	d="
M239.513184,269.058502 
	C239.918610,272.027893 239.954437,275.064941 239.944000,278.555298 
	C236.060730,276.818817 235.735306,272.554718 239.513184,269.058502 
z"/>
<path fill="#1EB6EC" opacity="1.000000" stroke="none" 
	d="
M208.375153,310.852173 
	C208.031921,307.643707 208.005920,304.271240 208.020599,300.440155 
	C210.893890,303.395844 210.548233,306.997498 208.375153,310.852173 
z"/>
<path fill="#1BB7EE" opacity="1.000000" stroke="none" 
	d="
M288.830383,406.575623 
	C285.900208,406.744873 282.789185,406.593170 279.330261,406.237061 
	C282.204712,406.106628 285.427124,406.180634 288.830383,406.575623 
z"/>
<path fill="#17B9F2" opacity="1.000000" stroke="none" 
	d="
M239.550446,284.049377 
	C239.933060,285.712097 239.960251,287.432495 239.940491,289.581055 
	C235.800705,288.498657 235.741730,286.510681 239.550446,284.049377 
z"/>
<path fill="#1EB6EC" opacity="1.000000" stroke="none" 
	d="
M202.302094,182.088409 
	C201.224045,179.467682 200.383484,176.985962 199.667999,174.225098 
	C201.184799,176.702957 202.576508,179.459961 203.996658,182.582092 
	C203.529922,182.707275 203.034744,182.467361 202.302094,182.088409 
z"/>
<path fill="#1EB6EC" opacity="1.000000" stroke="none" 
	d="
M212.270264,143.197159 
	C214.426743,142.062698 216.856766,141.112442 219.656281,140.129639 
	C217.531769,141.191849 215.037781,142.286606 212.270264,143.197159 
z"/>
<path fill="#17B9F2" opacity="1.000000" stroke="none" 
	d="
M239.612366,188.045364 
	C239.975464,189.388657 239.985779,190.781845 239.956360,192.591614 
	C236.282455,191.827286 235.861099,190.216721 239.612366,188.045364 
z"/>
<path fill="#1EB6EC" opacity="1.000000" stroke="none" 
	d="
M230.049713,383.368347 
	C230.068634,383.717468 229.664001,383.755798 229.462860,383.735229 
	C228.750671,383.150482 228.239655,382.586365 227.485352,381.866272 
	C227.040604,381.496857 226.839828,381.282745 226.493225,380.904114 
	C226.214432,380.072083 226.082123,379.403900 225.922134,378.395508 
	C227.273239,379.709930 228.652023,381.364563 230.049713,383.368347 
z"/>
<path fill="#1EB6EC" opacity="1.000000" stroke="none" 
	d="
M209.171158,338.712585 
	C208.647598,336.949371 208.334503,334.875702 208.061920,332.389526 
	C208.528839,334.118744 208.955215,336.260437 209.171158,338.712585 
z"/>
<path fill="#1EB6EC" opacity="1.000000" stroke="none" 
	d="
M208.377014,324.862915 
	C208.039078,323.293884 208.008148,321.569153 208.014984,319.414520 
	C210.608124,320.633484 210.570877,322.568359 208.377014,324.862915 
z"/>
<path fill="#1BB7EE" opacity="1.000000" stroke="none" 
	d="
M267.878052,404.486633 
	C266.057983,404.108490 264.095001,403.421997 261.945190,402.444366 
	C263.750610,402.828247 265.742889,403.503235 267.878052,404.486633 
z"/>
<path fill="#1EB6EC" opacity="1.000000" stroke="none" 
	d="
M200.307663,155.885529 
	C200.789749,154.437897 201.597626,152.874512 202.677094,151.116608 
	C202.176941,152.537979 201.405197,154.153885 200.307663,155.885529 
z"/>
<path fill="#1EB6EC" opacity="1.000000" stroke="none" 
	d="
M224.841492,375.878906 
	C224.225418,376.104980 223.581680,375.987549 222.624847,375.781494 
	C222.182419,374.724091 222.053055,373.755341 221.921249,372.417542 
	C222.883789,373.210785 223.848801,374.373138 224.841492,375.878906 
z"/>
<path fill="#1EB6EC" opacity="1.000000" stroke="none" 
	d="
M208.338577,293.888397 
	C208.025208,292.940063 208.000473,291.864288 208.014008,290.386292 
	C208.243927,291.243011 208.435562,292.501984 208.338577,293.888397 
z"/>
<path fill="#1EB6EC" opacity="1.000000" stroke="none" 
	d="
M227.135315,140.362762 
	C228.272415,140.448914 229.561218,140.849899 231.033875,141.547302 
	C229.907486,141.455017 228.597260,141.066330 227.135315,140.362762 
z"/>
<path fill="#1EB6EC" opacity="1.000000" stroke="none" 
	d="
M208.334076,316.887604 
	C208.021835,315.938904 207.998749,314.863403 208.015045,313.385742 
	C208.244034,314.242676 208.433624,315.501740 208.334076,316.887604 
z"/>
<path fill="#1BB7EE" opacity="1.000000" stroke="none" 
	d="
M275.886597,405.672913 
	C274.855713,405.799194 273.702515,405.632477 272.258789,405.266846 
	C273.233612,405.171967 274.498932,405.275940 275.886597,405.672913 
z"/>
<path fill="#1EB6EC" opacity="1.000000" stroke="none" 
	d="
M221.881271,371.730225 
	C220.968216,370.953552 220.009216,369.834015 218.969635,368.386841 
	C219.871155,369.168579 220.853256,370.277954 221.881271,371.730225 
z"/>
<path fill="#1EB6EC" opacity="1.000000" stroke="none" 
	d="
M215.857330,360.870361 
	C215.218002,360.380768 214.591278,359.536346 213.939880,358.356689 
	C214.566788,358.852844 215.218369,359.684204 215.857330,360.870361 
z"/>
<path fill="#1EB6EC" opacity="1.000000" stroke="none" 
	d="
M211.818787,348.926392 
	C211.195770,348.413574 210.597046,347.543945 209.987961,346.337463 
	C210.599426,346.856934 211.221252,347.713257 211.818787,348.926392 
z"/>
<path fill="#1BB7EE" opacity="1.000000" stroke="none" 
	d="
M272.094971,374.263519 
	C272.837341,374.167450 273.676300,374.351288 274.776184,374.730103 
	C274.088562,374.797852 273.140076,374.670654 272.094971,374.263519 
z"/>
<path fill="#1EB6EC" opacity="1.000000" stroke="none" 
	d="
M233.140656,142.235565 
	C233.983154,142.362579 234.943893,142.812698 236.068237,143.550629 
	C235.240845,143.411850 234.249878,142.985245 233.140656,142.235565 
z"/>
<path fill="#17B9F2" opacity="1.000000" stroke="none" 
	d="
M239.609512,325.008606 
	C239.884949,325.165192 239.900299,325.343903 239.897797,325.791748 
	C239.203201,326.015472 238.526443,325.970093 237.849686,325.924683 
	C238.349594,325.626709 238.849503,325.328705 239.609512,325.008606 
z"/>
<path fill="#1EB6EC" opacity="1.000000" stroke="none" 
	d="
M213.792603,355.941101 
	C213.271133,355.703156 212.707199,355.148132 212.076416,354.293915 
	C212.589767,354.537811 213.169952,355.080902 213.792603,355.941101 
z"/>
<path fill="#1BB7EE" opacity="1.000000" stroke="none" 
	d="
M263.059509,370.298859 
	C263.521454,370.238831 264.057739,370.411987 264.808441,370.774902 
	C264.393188,370.820435 263.763550,370.676270 263.059509,370.298859 
z"/>
<path fill="#1BB7EE" opacity="1.000000" stroke="none" 
	d="
M267.139771,372.239227 
	C267.689819,372.393433 268.332550,372.852814 269.120300,373.583252 
	C268.587708,373.417633 267.910065,372.981018 267.139771,372.239227 
z"/>
<path fill="#1BB7EE" opacity="1.000000" stroke="none" 
	d="
M277.060181,375.332581 
	C277.521362,375.245636 278.061218,375.390411 278.829651,375.702637 
	C278.418396,375.768127 277.778625,375.666199 277.060181,375.332581 
z"/>
<path fill="#1BB7EE" opacity="1.000000" stroke="none" 
	d="
M243.926956,393.818329 
	C243.456528,393.859802 242.924255,393.653381 242.182709,393.248383 
	C242.604004,393.223358 243.234543,393.396912 243.926956,393.818329 
z"/>
<path fill="#1EB6EC" opacity="1.000000" stroke="none" 
	d="
M230.441193,384.937042 
	C230.289551,384.778931 230.244980,384.357086 230.263763,384.145081 
	C230.930420,384.388428 231.578293,384.843750 232.193787,385.514648 
	C232.161438,385.730194 231.690140,385.756378 231.456512,385.729980 
	C231.007721,385.506134 230.797684,385.303314 230.441193,384.937042 
z"/>
<path fill="#1EB6EC" opacity="1.000000" stroke="none" 
	d="
M235.893921,387.870911 
	C235.497467,388.029968 235.052887,387.946564 234.292084,387.737030 
	C234.599182,387.616760 235.222488,387.622650 235.893921,387.870911 
z"/>
<path fill="#14BAF4" opacity="1.000000" stroke="none" 
	d="
M425.659729,469.767334 
	C422.167511,466.111694 419.008789,462.567810 415.549927,458.880859 
	C412.929993,458.176178 410.611237,457.129547 408.290314,457.124725 
	C362.132904,457.028687 315.973938,456.846436 269.818176,457.141174 
	C247.098770,457.286255 225.711655,452.617798 206.467300,440.577606 
	C191.201813,431.026825 178.689682,418.447113 170.056274,402.296631 
	C161.793930,386.840332 157.760315,370.511993 157.839005,352.944855 
	C158.036011,308.954346 158.016434,264.962006 157.866577,220.971130 
	C157.742569,184.566025 157.266037,148.162216 157.073776,111.757141 
	C157.053406,107.902267 156.038803,105.168587 152.668045,103.000679 
	C143.096603,96.844765 138.243698,87.659721 136.371140,76.642174 
	C134.356781,64.790260 141.669418,50.103424 151.872284,43.663586 
	C162.692841,36.833885 173.836227,35.441597 185.668747,39.722149 
	C207.916138,47.770390 216.171844,77.250526 201.193588,94.423004 
	C199.024719,96.909615 196.924103,99.720673 194.186584,101.387329 
	C189.511642,104.233528 187.846191,107.779121 187.851089,113.266853 
	C187.869171,133.574173 187.081024,153.882751 187.134979,174.189407 
	C187.294312,234.156143 187.302567,294.128296 188.201477,354.085846 
	C188.643021,383.536560 205.072342,409.726898 233.372971,420.755951 
	C242.937790,424.483459 253.749359,426.529114 264.024719,426.657532 
	C312.507721,427.263397 361.002533,426.880707 409.492615,427.023315 
	C414.956268,427.039398 418.407104,425.087067 420.220520,419.640015 
	C425.869873,416.007324 431.059418,411.740387 437.013245,409.570801 
	C458.858246,401.610382 479.294037,416.899963 481.941956,438.668396 
	C483.695099,453.081146 477.044678,464.286072 465.268768,471.473328 
	C455.260773,477.581573 443.853210,478.228882 432.716370,473.146759 
	C430.450165,472.112671 428.233032,470.971130 425.659729,469.767334 
M444.270813,431.241425 
	C437.789551,434.490906 435.213531,439.538757 437.117340,445.259094 
	C438.738770,450.130798 444.311829,453.397156 449.397186,452.456299 
	C455.377625,451.349792 459.040741,446.194061 458.232300,440.021057 
	C457.427673,433.876678 452.490479,430.511749 444.270813,431.241425 
M181.957291,79.281113 
	C184.803253,74.651772 184.668152,70.017029 181.402557,65.768295 
	C178.687363,62.235649 174.889923,60.635101 170.364502,61.482193 
	C165.253769,62.438839 161.686874,66.253372 161.036209,71.271912 
	C160.403900,76.148872 162.793396,80.751541 167.071533,82.897209 
	C172.005997,85.372047 176.972015,84.335121 181.957291,79.281113 
z"/>
<path fill="#042135" opacity="1.000000" stroke="none" 
	d="
M265.423706,66.491837 
	C271.292572,60.215042 277.979675,59.610565 283.099915,64.602959 
	C286.797485,68.208275 287.731262,73.875557 285.369263,78.376610 
	C282.985779,82.918610 278.050018,85.168488 272.683197,84.159317 
	C267.880554,83.256248 264.136383,79.242851 263.902527,74.018349 
	C263.795929,71.636971 264.752808,69.208000 265.423706,66.491837 
M265.892303,73.447746 
	C265.991974,77.270111 267.427826,80.915634 271.185944,81.565369 
	C274.273590,82.099190 278.234985,81.425880 280.877808,79.786369 
	C284.867279,77.311470 285.123047,72.635422 283.470428,68.551132 
	C281.725281,64.238159 277.710541,63.086971 273.444641,63.995918 
	C268.979706,64.947266 266.210541,67.823761 265.892303,73.447746 
z"/>
<path fill="#17B9F2" opacity="1.000000" stroke="none" 
	d="
M470.042908,337.132202 
	C470.496063,338.030579 471.029175,338.796844 470.833160,339.242157 
	C470.062683,340.992340 469.062622,342.641449 468.147797,344.328094 
	C467.214447,342.433472 466.281097,340.538849 465.347748,338.644226 
	C466.827759,338.047028 468.307770,337.449829 470.042908,337.132202 
z"/>
<path fill="#010A13" opacity="1.000000" stroke="none" 
	d="
M442.458984,343.873291 
	C437.144562,339.886169 435.483612,336.062408 437.040619,331.334167 
	C438.585754,326.642090 441.858551,323.625946 446.864868,323.357483 
	C451.610718,323.102966 455.247833,325.407684 457.234985,329.780212 
	C459.118195,333.923981 458.764221,338.069946 455.601685,341.414459 
	C452.074432,345.144714 447.678375,346.106659 442.458984,343.873291 
z"/>
<path fill="#031D32" opacity="1.000000" stroke="none" 
	d="
M370.862488,382.005524 
	C375.995361,386.253845 377.468170,390.509735 375.707306,395.261932 
	C373.766907,400.498596 368.262817,403.411407 362.823608,402.080017 
	C357.178772,400.698242 353.920380,395.575165 354.831757,389.514587 
	C355.640442,384.136841 360.148163,380.395294 365.749878,380.677338 
	C367.362000,380.758514 368.944733,381.422882 370.862488,382.005524 
M365.504913,400.097046 
	C371.468628,399.559357 374.187378,396.620636 374.066711,390.842468 
	C373.971893,386.303833 370.916260,383.233612 366.196259,382.934448 
	C361.238190,382.620148 357.359863,385.555756 356.936646,389.943298 
	C356.411713,395.385132 359.279175,399.147430 365.504913,400.097046 
z"/>
<path fill="#010A13" opacity="1.000000" stroke="none" 
	d="
M234.205811,162.144669 
	C235.741028,167.719131 234.592056,172.192566 230.033020,175.253830 
	C226.227097,177.809402 222.101242,177.581543 218.231491,175.228500 
	C214.309738,172.843811 212.590149,169.240540 213.079758,164.645859 
	C213.557999,160.157837 217.149887,156.086563 221.448639,155.122238 
	C226.548096,153.978287 230.850403,156.248169 234.205811,162.144669 
z"/>
<path fill="#010910" opacity="1.000000" stroke="none" 
	d="
M444.665771,431.142700 
	C452.490479,430.511749 457.427673,433.876678 458.232300,440.021057 
	C459.040741,446.194061 455.377625,451.349792 449.397186,452.456299 
	C444.311829,453.397156 438.738770,450.130798 437.117340,445.259094 
	C435.213531,439.538757 437.789551,434.490906 444.665771,431.142700 
z"/>
<path fill="#042135" opacity="1.000000" stroke="none" 
	d="
M181.732513,79.581985 
	C176.972015,84.335121 172.005997,85.372047 167.071533,82.897209 
	C162.793396,80.751541 160.403900,76.148872 161.036209,71.271912 
	C161.686874,66.253372 165.253769,62.438839 170.364502,61.482193 
	C174.889923,60.635101 178.687363,62.235649 181.402557,65.768295 
	C184.668152,70.017029 184.803253,74.651772 181.732513,79.581985 
M180.037613,78.396904 
	C182.919830,72.419754 182.322601,67.926147 178.273209,65.121216 
	C173.763474,61.997417 168.095383,62.634655 164.893845,66.625412 
	C161.798004,70.484421 162.247208,76.070763 165.936600,79.592834 
	C169.903091,83.379448 174.941177,83.158134 180.037613,78.396904 
z"/>
<path fill="#000103" opacity="1.000000" stroke="none" 
	d="
M265.891205,73.035789 
	C266.210541,67.823761 268.979706,64.947266 273.444641,63.995918 
	C277.710541,63.086971 281.725281,64.238159 283.470428,68.551132 
	C285.123047,72.635422 284.867279,77.311470 280.877808,79.786369 
	C278.234985,81.425880 274.273590,82.099190 271.185944,81.565369 
	C267.427826,80.915634 265.991974,77.270111 265.891205,73.035789 
z"/>
<path fill="#000103" opacity="1.000000" stroke="none" 
	d="
M365.088257,400.094604 
	C359.279175,399.147430 356.411713,395.385132 356.936646,389.943298 
	C357.359863,385.555756 361.238190,382.620148 366.196259,382.934448 
	C370.916260,383.233612 373.971893,386.303833 374.066711,390.842468 
	C374.187378,396.620636 371.468628,399.559357 365.088257,400.094604 
z"/>
<path fill="#000103" opacity="1.000000" stroke="none" 
	d="
M179.787231,78.696152 
	C174.941177,83.158134 169.903091,83.379448 165.936600,79.592834 
	C162.247208,76.070763 161.798004,70.484421 164.893845,66.625412 
	C168.095383,62.634655 173.763474,61.997417 178.273209,65.121216 
	C182.322601,67.926147 182.919830,72.419754 179.787231,78.696152 
z"/>
</svg>