<svg version="1.1" id="Layer_1" xmlns="http://www.w3.org/2000/svg" xmlns:xlink="http://www.w3.org/1999/xlink" x="0px" y="0px"
	 width="100%" viewBox="0 0 1750 529" enable-background="new 0 0 1750 529" xml:space="preserve">
<path fill="#010101" opacity="1.000000" stroke="none" 
	d="
M1168.000000,530.000000 
	C778.666687,530.000000 389.833344,530.000000 1.000000,530.000000 
	C1.000000,353.666656 1.000000,177.333328 1.000000,1.000000 
	C584.333313,1.000000 1167.666626,1.000000 1751.000000,1.000000 
	C1751.000000,177.333328 1751.000000,353.666656 1751.000000,530.000000 
	C1556.833374,530.000000 1362.666626,530.000000 1168.000000,530.000000 
M667.455750,409.115387 
	C681.916931,417.761017 698.007141,420.446259 714.400940,420.889160 
	C738.550232,421.541656 762.723022,421.573090 786.883850,421.454681 
	C801.202515,421.384552 815.557983,421.011017 829.819397,419.834320 
	C839.196960,419.060608 848.529358,416.998260 857.707397,414.787811 
	C864.746521,413.092560 868.392090,407.861542 868.923035,400.555878 
	C869.248901,396.072815 870.019348,391.601837 870.055664,387.121124 
	C870.345886,351.297882 870.721008,315.472748 870.577698,279.650177 
	C870.535889,269.199097 869.397400,258.683533 867.907959,248.320221 
	C863.664124,218.792847 847.349731,199.262100 818.139771,192.052551 
	C806.444458,189.165924 794.200378,187.348923 782.174133,187.168213 
	C742.020020,186.564865 701.851501,186.912735 661.688477,186.920074 
	C654.136108,186.921448 651.605408,189.461090 651.538086,197.192047 
	C651.458313,206.357208 651.504333,215.523514 651.508972,224.689331 
	C651.514282,235.258148 653.538452,237.347336 663.964050,237.346863 
	C702.127197,237.345154 740.290466,237.287674 778.453491,237.331894 
	C783.442810,237.337662 788.453613,237.600601 793.415771,238.116669 
	C802.604431,239.072296 810.119751,242.855377 813.711243,251.962967 
	C817.267090,260.979828 816.837402,270.432983 816.727600,280.092621 
	C813.983582,280.092621 811.825195,280.092560 809.666809,280.092621 
	C781.169434,280.093719 752.664429,279.711578 724.178162,280.275177 
	C711.927979,280.517548 699.503235,281.714600 687.533813,284.251770 
	C665.263245,288.972443 650.336853,302.035522 646.236206,325.450348 
	C643.309082,342.164337 643.051941,358.890594 645.770264,375.671234 
	C648.052185,389.758179 654.978577,400.802551 667.455750,409.115387 
M1101.259399,266.845459 
	C1104.362793,258.073517 1107.507690,249.315979 1110.560791,240.526535 
	C1116.177490,224.357391 1121.809448,208.192886 1127.297241,191.979874 
	C1130.206909,183.383667 1127.728638,179.976578 1118.912842,179.968338 
	C1107.080322,179.957291 1095.247559,179.934891 1083.415161,179.964951 
	C1076.033203,179.983688 1073.736694,181.706680 1071.386230,188.645889 
	C1054.378784,238.857834 1037.343506,289.060425 1020.386108,339.289276 
	C1019.216980,342.752197 1018.141724,346.102203 1013.862793,346.460205 
	C1009.471680,346.827576 1007.424988,343.838318 1005.660034,340.400848 
	C988.125244,306.249756 970.539062,272.125000 952.990173,237.981094 
	C944.328796,221.129318 935.715393,204.252899 927.079529,187.388016 
	C925.017944,183.361984 922.399902,179.969940 917.348755,179.954788 
	C903.516602,179.913300 889.683044,179.853653 875.852417,180.012329 
	C869.974304,180.079773 867.255432,184.429138 869.311829,189.978897 
	C869.886353,191.529633 870.727478,192.988129 871.512878,194.453262 
	C895.238770,238.713425 918.947327,282.982880 942.716736,327.219666 
	C954.757935,349.629120 966.928589,371.968994 979.000488,394.361969 
	C981.705688,399.380005 985.087891,403.731201 990.995789,404.774597 
	C995.936279,405.647156 996.329468,408.148956 994.954773,412.240479 
	C991.620300,422.164825 988.093811,432.049683 985.351929,442.142548 
	C980.691772,459.296631 969.317383,464.470459 954.778381,464.459656 
	C948.279236,464.454834 941.778931,464.260681 935.281189,464.332153 
	C927.797791,464.414490 924.965637,467.284149 924.942749,474.642944 
	C924.910583,484.975464 924.913818,495.308472 924.980774,505.640747 
	C925.030151,513.255432 928.279480,516.668518 935.912415,516.772095 
	C946.409363,516.914612 956.911621,516.917175 967.408569,516.768799 
	C996.665710,516.355286 1016.889954,502.489685 1028.238403,475.585327 
	C1029.593994,472.371826 1030.943726,469.146820 1032.089478,465.855225 
	C1055.092041,399.775909 1078.064087,333.686035 1101.259399,266.845459 
M1462.446411,363.943787 
	C1447.981445,379.609039 1433.437256,395.202881 1419.160522,411.037750 
	C1417.532593,412.843353 1416.168579,416.509155 1416.940430,418.381653 
	C1417.655273,420.116028 1421.380127,421.450714 1423.809204,421.499939 
	C1438.631958,421.800293 1453.464478,421.569489 1468.290771,421.754364 
	C1475.782837,421.847778 1481.726685,419.319397 1486.775513,413.664276 
	C1499.643799,399.251221 1512.789185,385.085693 1525.821045,370.818787 
	C1534.134033,361.717926 1542.337280,352.513855 1550.792236,343.546997 
	C1555.725342,338.315033 1560.302246,338.432800 1565.498291,343.381195 
	C1566.703247,344.528748 1567.842896,345.749420 1568.958618,346.985229 
	C1589.050781,369.241089 1609.192383,391.452820 1629.177612,413.804443 
	C1633.840454,419.019196 1639.385620,421.612915 1646.282837,421.615662 
	C1661.944214,421.621918 1677.607666,421.772552 1693.264648,421.517883 
	C1695.536011,421.480957 1698.943481,420.049164 1699.703491,418.326721 
	C1700.467407,416.595306 1699.233887,413.137543 1697.748779,411.398651 
	C1689.314087,401.521881 1680.629639,391.853149 1671.867432,382.262360 
	C1648.047485,356.190094 1624.112305,330.223083 1600.299438,304.144348 
	C1594.118774,297.375458 1594.204956,292.942078 1600.302246,286.341919 
	C1617.484375,267.742981 1634.756104,249.226578 1651.901367,230.593628 
	C1664.530884,216.868027 1677.091553,203.076706 1689.464600,189.120895 
	C1690.883545,187.520447 1691.975830,184.189102 1691.240845,182.544373 
	C1690.568237,181.039185 1687.223877,180.034180 1685.042358,180.007843 
	C1668.883545,179.812820 1652.717773,180.109344 1636.561523,179.830673 
	C1630.369141,179.723846 1625.776733,181.742142 1621.695068,186.336166 
	C1604.657104,205.512848 1587.067871,224.212097 1570.411133,243.710449 
	C1560.602905,255.191879 1554.614868,253.479248 1546.462891,243.545639 
	C1546.145874,243.159424 1545.836182,242.766144 1545.502319,242.394913 
	C1528.236450,223.199982 1511.082153,203.901978 1493.564819,184.939316 
	C1491.224121,182.405380 1487.079712,180.255997 1483.711548,180.167160 
	C1465.896484,179.697311 1448.061523,179.853561 1430.236694,180.068008 
	C1428.241089,180.092041 1425.294678,181.389999 1424.554077,182.940308 
	C1423.808594,184.500854 1424.678711,187.542496 1425.874756,189.179642 
	C1428.711792,193.062683 1432.106567,196.548187 1435.371216,200.107025 
	C1462.283447,229.446045 1489.244385,258.740601 1516.125366,288.108093 
	C1522.477539,295.047852 1522.328003,299.380341 1515.941650,306.268860 
	C1498.274536,325.325165 1480.598145,344.372925 1462.446411,363.943787 
M113.792030,407.755066 
	C94.911568,391.859589 85.692490,371.645813 85.730347,346.891937 
	C85.858772,262.906830 85.787933,178.921387 85.713951,94.936127 
	C85.711021,91.609787 86.658829,89.590569 89.596710,87.685600 
	C104.579689,77.970459 110.894440,60.114944 105.723000,43.102951 
	C100.624542,26.331013 85.548744,15.202105 67.880157,15.167475 
	C50.376888,15.133169 34.990158,26.748199 29.974678,43.781300 
	C25.072054,60.431145 31.604511,78.459076 46.316364,87.868065 
	C49.304775,89.779305 50.152100,91.862526 50.115925,95.154854 
	C49.980450,107.484482 50.080498,119.816643 50.083664,132.147858 
	C50.101963,203.468918 50.071514,274.790039 50.158684,346.111023 
	C50.190784,372.374786 57.013348,396.603760 73.744225,417.242218 
	C95.836319,444.494019 124.891068,458.576050 159.810669,458.974182 
	C210.795273,459.555511 261.791443,459.166687 312.782410,459.056488 
	C316.653748,459.048126 318.983093,460.083374 321.237854,463.477905 
	C330.482666,477.395691 348.335754,483.176697 364.506836,477.982239 
	C379.750519,473.085632 390.544952,458.068848 390.453033,441.886810 
	C390.354614,424.555511 379.276428,409.672638 362.924713,404.904266 
	C347.121307,400.295746 329.792023,406.809021 320.745636,421.097351 
	C319.001160,423.852600 317.021240,424.308197 314.177032,424.304749 
	C263.352631,424.242737 212.528046,424.206329 161.703629,424.260956 
	C144.054443,424.279938 128.385895,418.729828 113.792030,407.755066 
M401.733429,270.499847 
	C401.760315,288.825684 401.529541,307.156830 401.904968,325.475525 
	C402.153595,337.608673 402.736145,349.784851 404.106842,361.835144 
	C407.342133,390.277649 423.711761,409.129974 451.608185,416.076874 
	C462.194885,418.713257 473.230042,420.694366 484.094452,420.867920 
	C526.899841,421.551758 569.718506,421.432129 612.532410,421.519409 
	C619.036865,421.532684 622.047546,418.538513 622.154541,412.020477 
	C622.329529,401.361115 622.245117,390.696960 622.220764,380.034973 
	C622.198730,370.364410 619.861755,368.099609 610.034180,368.096832 
	C574.715027,368.086884 539.395203,368.198242 504.077301,367.984833 
	C495.951019,367.935760 487.770691,367.197266 479.722595,366.033417 
	C466.686554,364.148254 462.135681,359.315765 461.064667,346.134705 
	C460.229553,335.857025 459.903503,325.514465 459.871216,315.199127 
	C459.735535,271.883606 459.813202,228.567474 459.770447,185.251602 
	C459.760284,174.961395 457.829895,173.145279 447.439087,173.150208 
	C436.276917,173.155502 425.114716,173.154114 413.952545,173.159241 
	C403.962891,173.163818 401.837219,175.150955 401.812500,185.034012 
	C401.742035,213.189178 401.754791,241.344528 401.733429,270.499847 
M156.369171,270.499878 
	C156.386688,277.498077 156.328323,284.497467 156.434723,291.494324 
	C156.915466,323.107574 180.152893,346.118256 211.862106,346.195068 
	C245.525284,346.276581 279.189209,346.222260 312.851990,346.058838 
	C316.736572,346.040009 319.053192,347.133698 321.296265,350.498474 
	C330.767426,364.705841 349.012848,370.589935 364.921234,365.022919 
	C381.086609,359.365997 391.620178,343.173584 390.269653,326.056580 
	C389.003632,310.009888 377.882507,296.213135 362.880280,292.077606 
	C346.756226,287.632843 330.889679,293.644165 320.793488,307.713226 
	C319.553436,309.441254 317.053528,311.331848 315.127441,311.342499 
	C280.632446,311.533600 246.134918,311.584686 211.640167,311.343597 
	C199.518509,311.258881 191.906708,303.036957 191.902725,290.942017 
	C191.881241,225.614914 191.924545,160.287766 191.817123,94.960838 
	C191.811142,91.324905 193.058685,89.379173 196.074646,87.436852 
	C209.971802,78.486862 216.543610,60.921890 212.303619,45.027843 
	C207.671021,27.662033 192.949707,15.748198 175.379257,15.145297 
	C158.072647,14.551450 142.066422,25.935678 136.648804,42.691845 
	C131.184799,59.591503 137.251999,77.307823 152.314148,87.388977 
	C155.318939,89.400093 156.447235,91.433525 156.440735,95.017639 
	C156.335190,153.178238 156.368637,211.339081 156.369171,270.499878 
M1227.777466,180.217712 
	C1219.392090,181.473175 1210.905273,182.263977 1202.639771,184.068695 
	C1174.593994,190.192322 1155.826782,206.580933 1149.244995,235.024780 
	C1146.859375,245.334671 1145.218140,256.060333 1145.118774,266.614014 
	C1144.662231,315.087189 1144.850708,363.566650 1144.863647,412.043854 
	C1144.865601,419.256256 1147.327515,421.602081 1154.514404,421.633270 
	C1166.675293,421.686005 1178.836426,421.693390 1190.997437,421.699524 
	C1200.907715,421.704559 1202.872559,419.720703 1202.876343,409.629639 
	C1202.892944,365.316833 1202.853271,321.003937 1202.942505,276.691315 
	C1202.956299,269.874359 1203.251465,263.030731 1203.913330,256.247925 
	C1205.361450,241.410400 1212.265137,233.627487 1226.622070,230.284882 
	C1229.688843,229.570831 1232.859863,228.985931 1235.993408,228.929581 
	C1254.807739,228.591354 1273.625122,228.435318 1292.441162,228.194656 
	C1298.589111,228.116013 1301.255737,226.023849 1301.436279,220.013062 
	C1301.761597,209.195679 1301.810181,198.358109 1301.542603,187.539642 
	C1301.403320,181.913483 1298.899658,179.912689 1293.190796,179.920349 
	C1271.702026,179.949203 1250.213135,180.064682 1227.777466,180.217712 
M192.553482,371.782288 
	C191.554031,371.780182 190.553787,371.750732 189.555252,371.779968 
	C162.125275,372.582520 138.369766,353.859955 138.788727,321.383026 
	C139.401138,273.908966 138.925003,226.421219 139.092072,178.939941 
	C139.100266,176.616257 140.244461,173.750580 141.840271,172.066513 
	C152.740417,160.563599 152.720825,142.911346 141.509064,131.507187 
	C130.718185,120.531151 112.668854,120.331184 101.351578,131.062271 
	C89.968956,141.855331 89.363663,160.128601 100.300476,171.494095 
	C102.747101,174.036621 103.492744,176.528137 103.485886,179.887161 
	C103.388535,227.535370 103.244591,275.184479 103.436081,322.832031 
	C103.631401,371.435699 139.073395,406.490753 187.636353,406.534058 
	C204.629807,406.549225 221.623642,406.645691 238.616394,406.548065 
	C242.128464,406.527893 244.844086,407.251404 247.487000,409.883392 
	C253.201935,415.574707 260.543610,417.979523 268.468628,417.546021 
	C281.579132,416.828918 291.839539,407.838684 294.657623,395.263000 
	C297.437592,382.857422 291.593170,369.922821 280.462646,363.847382 
	C269.153046,357.674133 256.108734,359.792725 246.430389,369.020569 
	C244.846558,370.530640 242.195007,371.661011 240.019150,371.691345 
	C224.528214,371.907532 209.032684,371.792267 192.553482,371.782288 
M1342.684082,421.647125 
	C1354.681519,421.658112 1366.679077,421.720428 1378.676147,421.658234 
	C1384.583984,421.627594 1386.784912,419.553864 1387.437866,413.724304 
	C1387.604126,412.239655 1387.607300,410.731506 1387.607056,409.234131 
	C1387.596436,336.417816 1387.578369,263.601501 1387.551025,190.785187 
	C1387.550537,189.288666 1387.513916,187.783081 1387.350830,186.297424 
	C1386.900757,182.196365 1384.608276,179.943970 1380.438354,179.932068 
	C1366.108521,179.891144 1351.777832,179.838989 1337.448608,179.945221 
	C1332.344727,179.983047 1330.030396,182.519714 1329.741821,187.746414 
	C1329.659180,189.242386 1329.678467,190.744888 1329.678833,192.244400 
	C1329.696777,264.727844 1329.711914,337.211304 1329.745605,409.694733 
	C1329.750244,419.711029 1331.665039,421.573944 1342.684082,421.647125 
M1377.269897,85.793121 
	C1364.628540,85.792274 1351.986938,85.749954 1339.345947,85.806641 
	C1332.127197,85.839012 1329.821289,88.100044 1329.769775,95.400932 
	C1329.680786,108.041550 1329.680176,120.683960 1329.791016,133.324326 
	C1329.852173,140.296890 1332.601318,143.004456 1339.520752,143.045227 
	C1352.161621,143.119690 1364.803711,143.121490 1377.444580,143.038330 
	C1384.538940,142.991669 1387.380859,140.582047 1387.526489,133.580276 
	C1387.796021,120.612846 1387.776733,107.631935 1387.514771,94.663971 
	C1387.378174,87.899590 1385.171265,86.151543 1377.269897,85.793121 
z"/>
<path fill="#FEFEFE" opacity="1.000000" stroke="none" 
	d="
M667.136108,408.941895 
	C654.978577,400.802551 648.052185,389.758179 645.770264,375.671234 
	C643.051941,358.890594 643.309082,342.164337 646.236206,325.450348 
	C650.336853,302.035522 665.263245,288.972443 687.533813,284.251770 
	C699.503235,281.714600 711.927979,280.517548 724.178162,280.275177 
	C752.664429,279.711578 781.169434,280.093719 809.666809,280.092621 
	C811.825195,280.092560 813.983582,280.092621 816.727600,280.092621 
	C816.837402,270.432983 817.267090,260.979828 813.711243,251.962967 
	C810.119751,242.855377 802.604431,239.072296 793.415771,238.116669 
	C788.453613,237.600601 783.442810,237.337662 778.453491,237.331894 
	C740.290466,237.287674 702.127197,237.345154 663.964050,237.346863 
	C653.538452,237.347336 651.514282,235.258148 651.508972,224.689331 
	C651.504333,215.523514 651.458313,206.357208 651.538086,197.192047 
	C651.605408,189.461090 654.136108,186.921448 661.688477,186.920074 
	C701.851501,186.912735 742.020020,186.564865 782.174133,187.168213 
	C794.200378,187.348923 806.444458,189.165924 818.139771,192.052551 
	C847.349731,199.262100 863.664124,218.792847 867.907959,248.320221 
	C869.397400,258.683533 870.535889,269.199097 870.577698,279.650177 
	C870.721008,315.472748 870.345886,351.297882 870.055664,387.121124 
	C870.019348,391.601837 869.248901,396.072815 868.923035,400.555878 
	C868.392090,407.861542 864.746521,413.092560 857.707397,414.787811 
	C848.529358,416.998260 839.196960,419.060608 829.819397,419.834320 
	C815.557983,421.011017 801.202515,421.384552 786.883850,421.454681 
	C762.723022,421.573090 738.550232,421.541656 714.400940,420.889160 
	C698.007141,420.446259 681.916931,417.761017 667.136108,408.941895 
M800.372498,374.004364 
	C807.091736,373.065613 814.159058,371.276672 815.047058,363.608459 
	C816.580139,350.369690 816.702271,336.967529 817.417786,323.607849 
	C815.370667,323.401093 814.722778,323.278687 814.074890,323.278442 
	C783.951538,323.266541 753.828125,323.239014 723.704895,323.301849 
	C720.558655,323.308411 717.380737,323.663574 714.274109,324.190460 
	C705.327637,325.707794 700.499756,329.804718 699.274048,337.844727 
	C698.454346,343.221832 698.156311,348.819977 698.645874,354.226776 
	C699.800354,366.977417 705.439575,373.398438 718.215393,373.745941 
	C745.296265,374.482544 772.408752,374.053497 800.372498,374.004364 
z"/>
<path fill="#FDFDFD" opacity="1.000000" stroke="none" 
	d="
M1101.150879,267.221893 
	C1078.064087,333.686035 1055.092041,399.775909 1032.089478,465.855225 
	C1030.943726,469.146820 1029.593994,472.371826 1028.238403,475.585327 
	C1016.889954,502.489685 996.665710,516.355286 967.408569,516.768799 
	C956.911621,516.917175 946.409363,516.914612 935.912415,516.772095 
	C928.279480,516.668518 925.030151,513.255432 924.980774,505.640747 
	C924.913818,495.308472 924.910583,484.975464 924.942749,474.642944 
	C924.965637,467.284149 927.797791,464.414490 935.281189,464.332153 
	C941.778931,464.260681 948.279236,464.454834 954.778381,464.459656 
	C969.317383,464.470459 980.691772,459.296631 985.351929,442.142548 
	C988.093811,432.049683 991.620300,422.164825 994.954773,412.240479 
	C996.329468,408.148956 995.936279,405.647156 990.995789,404.774597 
	C985.087891,403.731201 981.705688,399.380005 979.000488,394.361969 
	C966.928589,371.968994 954.757935,349.629120 942.716736,327.219666 
	C918.947327,282.982880 895.238770,238.713425 871.512878,194.453262 
	C870.727478,192.988129 869.886353,191.529633 869.311829,189.978897 
	C867.255432,184.429138 869.974304,180.079773 875.852417,180.012329 
	C889.683044,179.853653 903.516602,179.913300 917.348755,179.954788 
	C922.399902,179.969940 925.017944,183.361984 927.079529,187.388016 
	C935.715393,204.252899 944.328796,221.129318 952.990173,237.981094 
	C970.539062,272.125000 988.125244,306.249756 1005.660034,340.400848 
	C1007.424988,343.838318 1009.471680,346.827576 1013.862793,346.460205 
	C1018.141724,346.102203 1019.216980,342.752197 1020.386108,339.289276 
	C1037.343506,289.060425 1054.378784,238.857834 1071.386230,188.645889 
	C1073.736694,181.706680 1076.033203,179.983688 1083.415161,179.964951 
	C1095.247559,179.934891 1107.080322,179.957291 1118.912842,179.968338 
	C1127.728638,179.976578 1130.206909,183.383667 1127.297241,191.979874 
	C1121.809448,208.192886 1116.177490,224.357391 1110.560791,240.526535 
	C1107.507690,249.315979 1104.362793,258.073517 1101.150879,267.221893 
z"/>
<path fill="#18B8F0" opacity="1.000000" stroke="none" 
	d="
M1462.685913,363.683899 
	C1480.598145,344.372925 1498.274536,325.325165 1515.941650,306.268860 
	C1522.328003,299.380341 1522.477539,295.047852 1516.125366,288.108093 
	C1489.244385,258.740601 1462.283447,229.446045 1435.371216,200.107025 
	C1432.106567,196.548187 1428.711792,193.062683 1425.874756,189.179642 
	C1424.678711,187.542496 1423.808594,184.500854 1424.554077,182.940308 
	C1425.294678,181.389999 1428.241089,180.092041 1430.236694,180.068008 
	C1448.061523,179.853561 1465.896484,179.697311 1483.711548,180.167160 
	C1487.079712,180.255997 1491.224121,182.405380 1493.564819,184.939316 
	C1511.082153,203.901978 1528.236450,223.199982 1545.502319,242.394913 
	C1545.836182,242.766144 1546.145874,243.159424 1546.462891,243.545639 
	C1554.614868,253.479248 1560.602905,255.191879 1570.411133,243.710449 
	C1587.067871,224.212097 1604.657104,205.512848 1621.695068,186.336166 
	C1625.776733,181.742142 1630.369141,179.723846 1636.561523,179.830673 
	C1652.717773,180.109344 1668.883545,179.812820 1685.042358,180.007843 
	C1687.223877,180.034180 1690.568237,181.039185 1691.240845,182.544373 
	C1691.975830,184.189102 1690.883545,187.520447 1689.464600,189.120895 
	C1677.091553,203.076706 1664.530884,216.868027 1651.901367,230.593628 
	C1634.756104,249.226578 1617.484375,267.742981 1600.302246,286.341919 
	C1594.204956,292.942078 1594.118774,297.375458 1600.299438,304.144348 
	C1624.112305,330.223083 1648.047485,356.190094 1671.867432,382.262360 
	C1680.629639,391.853149 1689.314087,401.521881 1697.748779,411.398651 
	C1699.233887,413.137543 1700.467407,416.595306 1699.703491,418.326721 
	C1698.943481,420.049164 1695.536011,421.480957 1693.264648,421.517883 
	C1677.607666,421.772552 1661.944214,421.621918 1646.282837,421.615662 
	C1639.385620,421.612915 1633.840454,419.019196 1629.177612,413.804443 
	C1609.192383,391.452820 1589.050781,369.241089 1568.958618,346.985229 
	C1567.842896,345.749420 1566.703247,344.528748 1565.498291,343.381195 
	C1560.302246,338.432800 1555.725342,338.315033 1550.792236,343.546997 
	C1542.337280,352.513855 1534.134033,361.717926 1525.821045,370.818787 
	C1512.789185,385.085693 1499.643799,399.251221 1486.775513,413.664276 
	C1481.726685,419.319397 1475.782837,421.847778 1468.290771,421.754364 
	C1453.464478,421.569489 1438.631958,421.800293 1423.809204,421.499939 
	C1421.380127,421.450714 1417.655273,420.116028 1416.940430,418.381653 
	C1416.168579,416.509155 1417.532593,412.843353 1419.160522,411.037750 
	C1433.437256,395.202881 1447.981445,379.609039 1462.685913,363.683899 
z"/>
<path fill="#19B7EE" opacity="1.000000" stroke="none" 
	d="
M114.086166,407.959656 
	C128.385895,418.729828 144.054443,424.279938 161.703629,424.260956 
	C212.528046,424.206329 263.352631,424.242737 314.177032,424.304749 
	C317.021240,424.308197 319.001160,423.852600 320.745636,421.097351 
	C329.792023,406.809021 347.121307,400.295746 362.924713,404.904266 
	C379.276428,409.672638 390.354614,424.555511 390.453033,441.886810 
	C390.544952,458.068848 379.750519,473.085632 364.506836,477.982239 
	C348.335754,483.176697 330.482666,477.395691 321.237854,463.477905 
	C318.983093,460.083374 316.653748,459.048126 312.782410,459.056488 
	C261.791443,459.166687 210.795273,459.555511 159.810669,458.974182 
	C124.891068,458.576050 95.836319,444.494019 73.744225,417.242218 
	C57.013348,396.603760 50.190784,372.374786 50.158684,346.111023 
	C50.071514,274.790039 50.101963,203.468918 50.083664,132.147858 
	C50.080498,119.816643 49.980450,107.484482 50.115925,95.154854 
	C50.152100,91.862526 49.304775,89.779305 46.316364,87.868065 
	C31.604511,78.459076 25.072054,60.431145 29.974678,43.781300 
	C34.990158,26.748199 50.376888,15.133169 67.880157,15.167475 
	C85.548744,15.202105 100.624542,26.331013 105.723000,43.102951 
	C110.894440,60.114944 104.579689,77.970459 89.596710,87.685600 
	C86.658829,89.590569 85.711021,91.609787 85.713951,94.936127 
	C85.787933,178.921387 85.858772,262.906830 85.730347,346.891937 
	C85.692490,371.645813 94.911568,391.859589 114.086166,407.959656 
M64.409843,66.368408 
	C70.267128,67.916519 74.911324,65.978264 78.203720,61.106857 
	C81.074028,56.859962 80.859924,52.322823 78.199684,48.007881 
	C75.468681,43.578175 70.070435,41.313759 65.364952,42.415001 
	C60.197685,43.624306 56.403496,47.862812 55.725658,53.183094 
	C55.027725,58.661140 57.716293,63.026760 64.409843,66.368408 
M363.656006,445.592560 
	C365.044922,440.308289 364.113800,435.644318 359.646271,432.189087 
	C355.906250,429.296509 351.684021,429.011078 347.443909,430.965149 
	C342.632355,433.182617 340.280457,437.787811 340.904114,443.233429 
	C341.441284,447.923370 345.059937,451.921814 349.660522,452.908813 
	C355.460724,454.153198 359.696655,452.103455 363.656006,445.592560 
z"/>
<path fill="#FDFDFD" opacity="1.000000" stroke="none" 
	d="
M401.734100,269.999817 
	C401.754791,241.344528 401.742035,213.189178 401.812500,185.034012 
	C401.837219,175.150955 403.962891,173.163818 413.952545,173.159241 
	C425.114716,173.154114 436.276917,173.155502 447.439087,173.150208 
	C457.829895,173.145279 459.760284,174.961395 459.770447,185.251602 
	C459.813202,228.567474 459.735535,271.883606 459.871216,315.199127 
	C459.903503,325.514465 460.229553,335.857025 461.064667,346.134705 
	C462.135681,359.315765 466.686554,364.148254 479.722595,366.033417 
	C487.770691,367.197266 495.951019,367.935760 504.077301,367.984833 
	C539.395203,368.198242 574.715027,368.086884 610.034180,368.096832 
	C619.861755,368.099609 622.198730,370.364410 622.220764,380.034973 
	C622.245117,390.696960 622.329529,401.361115 622.154541,412.020477 
	C622.047546,418.538513 619.036865,421.532684 612.532410,421.519409 
	C569.718506,421.432129 526.899841,421.551758 484.094452,420.867920 
	C473.230042,420.694366 462.194885,418.713257 451.608185,416.076874 
	C423.711761,409.129974 407.342133,390.277649 404.106842,361.835144 
	C402.736145,349.784851 402.153595,337.608673 401.904968,325.475525 
	C401.529541,307.156830 401.760315,288.825684 401.734100,269.999817 
z"/>
<path fill="#19B8EE" opacity="1.000000" stroke="none" 
	d="
M156.369904,269.999878 
	C156.368637,211.339081 156.335190,153.178238 156.440735,95.017639 
	C156.447235,91.433525 155.318939,89.400093 152.314148,87.388977 
	C137.251999,77.307823 131.184799,59.591503 136.648804,42.691845 
	C142.066422,25.935678 158.072647,14.551450 175.379257,15.145297 
	C192.949707,15.748198 207.671021,27.662033 212.303619,45.027843 
	C216.543610,60.921890 209.971802,78.486862 196.074646,87.436852 
	C193.058685,89.379173 191.811142,91.324905 191.817123,94.960838 
	C191.924545,160.287766 191.881241,225.614914 191.902725,290.942017 
	C191.906708,303.036957 199.518509,311.258881 211.640167,311.343597 
	C246.134918,311.584686 280.632446,311.533600 315.127441,311.342499 
	C317.053528,311.331848 319.553436,309.441254 320.793488,307.713226 
	C330.889679,293.644165 346.756226,287.632843 362.880280,292.077606 
	C377.882507,296.213135 389.003632,310.009888 390.269653,326.056580 
	C391.620178,343.173584 381.086609,359.365997 364.921234,365.022919 
	C349.012848,370.589935 330.767426,364.705841 321.296265,350.498474 
	C319.053192,347.133698 316.736572,346.040009 312.851990,346.058838 
	C279.189209,346.222260 245.525284,346.276581 211.862106,346.195068 
	C180.152893,346.118256 156.915466,323.107574 156.434723,291.494324 
	C156.328323,284.497467 156.386688,277.498077 156.369904,269.999878 
M183.774261,46.803192 
	C177.168091,40.641838 169.784882,40.651634 164.722748,46.828472 
	C160.190399,52.358871 161.165558,60.101349 166.934708,64.390564 
	C171.487610,67.775536 177.809143,67.620819 182.156082,64.018021 
	C186.920059,60.069565 187.675476,53.935299 183.774261,46.803192 
M353.274292,340.581543 
	C360.977875,338.903687 364.812469,334.381897 364.233551,327.658234 
	C363.719635,321.689392 359.045837,317.172943 353.121002,316.919769 
	C346.709229,316.645844 341.329254,321.233826 340.814545,327.414642 
	C340.203735,334.749298 344.224457,339.288544 353.274292,340.581543 
z"/>
<path fill="#17B9F0" opacity="1.000000" stroke="none" 
	d="
M1228.250977,180.182709 
	C1250.213135,180.064682 1271.702026,179.949203 1293.190796,179.920349 
	C1298.899658,179.912689 1301.403320,181.913483 1301.542603,187.539642 
	C1301.810181,198.358109 1301.761597,209.195679 1301.436279,220.013062 
	C1301.255737,226.023849 1298.589111,228.116013 1292.441162,228.194656 
	C1273.625122,228.435318 1254.807739,228.591354 1235.993408,228.929581 
	C1232.859863,228.985931 1229.688843,229.570831 1226.622070,230.284882 
	C1212.265137,233.627487 1205.361450,241.410400 1203.913330,256.247925 
	C1203.251465,263.030731 1202.956299,269.874359 1202.942505,276.691315 
	C1202.853271,321.003937 1202.892944,365.316833 1202.876343,409.629639 
	C1202.872559,419.720703 1200.907715,421.704559 1190.997437,421.699524 
	C1178.836426,421.693390 1166.675293,421.686005 1154.514404,421.633270 
	C1147.327515,421.602081 1144.865601,419.256256 1144.863647,412.043854 
	C1144.850708,363.566650 1144.662231,315.087189 1145.118774,266.614014 
	C1145.218140,256.060333 1146.859375,245.334671 1149.244995,235.024780 
	C1155.826782,206.580933 1174.593994,190.192322 1202.639771,184.068695 
	C1210.905273,182.263977 1219.392090,181.473175 1228.250977,180.182709 
z"/>
<path fill="#1AB7EE" opacity="1.000000" stroke="none" 
	d="
M193.046051,371.782410 
	C209.032684,371.792267 224.528214,371.907532 240.019150,371.691345 
	C242.195007,371.661011 244.846558,370.530640 246.430389,369.020569 
	C256.108734,359.792725 269.153046,357.674133 280.462646,363.847382 
	C291.593170,369.922821 297.437592,382.857422 294.657623,395.263000 
	C291.839539,407.838684 281.579132,416.828918 268.468628,417.546021 
	C260.543610,417.979523 253.201935,415.574707 247.487000,409.883392 
	C244.844086,407.251404 242.128464,406.527893 238.616394,406.548065 
	C221.623642,406.645691 204.629807,406.549225 187.636353,406.534058 
	C139.073395,406.490753 103.631401,371.435699 103.436081,322.832031 
	C103.244591,275.184479 103.388535,227.535370 103.485886,179.887161 
	C103.492744,176.528137 102.747101,174.036621 100.300476,171.494095 
	C89.363663,160.128601 89.968956,141.855331 101.351578,131.062271 
	C112.668854,120.331184 130.718185,120.531151 141.509064,131.507187 
	C152.720825,142.911346 152.740417,160.563599 141.840271,172.066513 
	C140.244461,173.750580 139.100266,176.616257 139.092072,178.939941 
	C138.925003,226.421219 139.401138,273.908966 138.788727,321.383026 
	C138.369766,353.859955 162.125275,372.582520 189.555252,371.779968 
	C190.553787,371.750732 191.554031,371.780182 193.046051,371.782410 
M129.915802,143.621765 
	C124.763084,139.515869 119.890213,138.779312 115.306023,141.413437 
	C111.040100,143.864685 108.586906,148.958054 109.501740,153.650360 
	C110.523911,158.893234 113.633850,162.209305 118.873978,163.402252 
	C123.786652,164.520645 127.710640,162.702347 130.701035,158.918198 
	C134.041565,154.691010 133.852951,149.719345 129.915802,143.621765 
M262.048431,378.245941 
	C254.607788,383.153595 252.952225,390.921967 258.106964,396.740295 
	C261.912750,401.035980 268.285370,402.058533 273.046661,399.137634 
	C278.005219,396.095734 279.960785,389.826477 277.669891,384.316254 
	C275.273987,378.553436 269.800507,376.232330 262.048431,378.245941 
z"/>
<path fill="#17B8F0" opacity="1.000000" stroke="none" 
	d="
M1342.214844,421.646973 
	C1331.665039,421.573944 1329.750244,419.711029 1329.745605,409.694733 
	C1329.711914,337.211304 1329.696777,264.727844 1329.678833,192.244400 
	C1329.678467,190.744888 1329.659180,189.242386 1329.741821,187.746414 
	C1330.030396,182.519714 1332.344727,179.983047 1337.448608,179.945221 
	C1351.777832,179.838989 1366.108521,179.891144 1380.438354,179.932068 
	C1384.608276,179.943970 1386.900757,182.196365 1387.350830,186.297424 
	C1387.513916,187.783081 1387.550537,189.288666 1387.551025,190.785187 
	C1387.578369,263.601501 1387.596436,336.417816 1387.607056,409.234131 
	C1387.607300,410.731506 1387.604126,412.239655 1387.437866,413.724304 
	C1386.784912,419.553864 1384.583984,421.627594 1378.676147,421.658234 
	C1366.679077,421.720428 1354.681519,421.658112 1342.214844,421.646973 
z"/>
<path fill="#19B7EE" opacity="1.000000" stroke="none" 
	d="
M1377.734619,85.792358 
	C1385.171265,86.151543 1387.378174,87.899590 1387.514771,94.663971 
	C1387.776733,107.631935 1387.796021,120.612846 1387.526489,133.580276 
	C1387.380859,140.582047 1384.538940,142.991669 1377.444580,143.038330 
	C1364.803711,143.121490 1352.161621,143.119690 1339.520752,143.045227 
	C1332.601318,143.004456 1329.852173,140.296890 1329.791016,133.324326 
	C1329.680176,120.683960 1329.680786,108.041550 1329.769775,95.400932 
	C1329.821289,88.100044 1332.127197,85.839012 1339.345947,85.806641 
	C1351.986938,85.749954 1364.628540,85.792274 1377.734619,85.792358 
z"/>
<path fill="#040404" opacity="1.000000" stroke="none" 
	d="
M799.940430,374.053406 
	C772.408752,374.053497 745.296265,374.482544 718.215393,373.745941 
	C705.439575,373.398438 699.800354,366.977417 698.645874,354.226776 
	C698.156311,348.819977 698.454346,343.221832 699.274048,337.844727 
	C700.499756,329.804718 705.327637,325.707794 714.274109,324.190460 
	C717.380737,323.663574 720.558655,323.308411 723.704895,323.301849 
	C753.828125,323.239014 783.951538,323.266541 814.074890,323.278442 
	C814.722778,323.278687 815.370667,323.401093 817.417786,323.607849 
	C816.702271,336.967529 816.580139,350.369690 815.047058,363.608459 
	C814.159058,371.276672 807.091736,373.065613 799.940430,374.053406 
z"/>
<path fill="#010A10" opacity="1.000000" stroke="none" 
	d="
M64.042152,66.229286 
	C57.716293,63.026760 55.027725,58.661140 55.725658,53.183094 
	C56.403496,47.862812 60.197685,43.624306 65.364952,42.415001 
	C70.070435,41.313759 75.468681,43.578175 78.199684,48.007881 
	C80.859924,52.322823 81.074028,56.859962 78.203720,61.106857 
	C74.911324,65.978264 70.267128,67.916519 64.042152,66.229286 
z"/>
<path fill="#000910" opacity="1.000000" stroke="none" 
	d="
M363.474243,445.952515 
	C359.696655,452.103455 355.460724,454.153198 349.660522,452.908813 
	C345.059937,451.921814 341.441284,447.923370 340.904114,443.233429 
	C340.280457,437.787811 342.632355,433.182617 347.443909,430.965149 
	C351.684021,429.011078 355.906250,429.296509 359.646271,432.189087 
	C364.113800,435.644318 365.044922,440.308289 363.474243,445.952515 
z"/>
<path fill="#010A11" opacity="1.000000" stroke="none" 
	d="
M183.987335,47.110291 
	C187.675476,53.935299 186.920059,60.069565 182.156082,64.018021 
	C177.809143,67.620819 171.487610,67.775536 166.934708,64.390564 
	C161.165558,60.101349 160.190399,52.358871 164.722748,46.828472 
	C169.784882,40.651634 177.168091,40.641838 183.987335,47.110291 
z"/>
<path fill="#010A10" opacity="1.000000" stroke="none" 
	d="
M352.886658,340.593811 
	C344.224457,339.288544 340.203735,334.749298 340.814545,327.414642 
	C341.329254,321.233826 346.709229,316.645844 353.121002,316.919769 
	C359.045837,317.172943 363.719635,321.689392 364.233551,327.658234 
	C364.812469,334.381897 360.977875,338.903687 352.886658,340.593811 
z"/>
<path fill="#010A10" opacity="1.000000" stroke="none" 
	d="
M130.186615,143.894653 
	C133.852951,149.719345 134.041565,154.691010 130.701035,158.918198 
	C127.710640,162.702347 123.786652,164.520645 118.873978,163.402252 
	C113.633850,162.209305 110.523911,158.893234 109.501740,153.650360 
	C108.586906,148.958054 111.040100,143.864685 115.306023,141.413437 
	C119.890213,138.779312 124.763084,139.515869 130.186615,143.894653 
z"/>
<path fill="#010B11" opacity="1.000000" stroke="none" 
	d="
M262.417053,378.125153 
	C269.800507,376.232330 275.273987,378.553436 277.669891,384.316254 
	C279.960785,389.826477 278.005219,396.095734 273.046661,399.137634 
	C268.285370,402.058533 261.912750,401.035980 258.106964,396.740295 
	C252.952225,390.921967 254.607788,383.153595 262.417053,378.125153 
z"/>
</svg>